<mxfile host="65bd71144e">
    <diagram id="niAGP8EQJZfjlDoOKWjr" name="Page-1">
        <mxGraphModel dx="347" dy="983" grid="1" gridSize="10" guides="1" tooltips="1" connect="1" arrows="1" fold="1" page="1" pageScale="1" pageWidth="1169" pageHeight="827" math="0" shadow="0">
            <root>
                <mxCell id="0"/>
                <mxCell id="1" parent="0"/>
                <mxCell id="2" value="" style="rounded=0;whiteSpace=wrap;html=1;" parent="1" vertex="1">
                    <mxGeometry x="110" y="120" width="1000" height="1510" as="geometry"/>
                </mxCell>
                <mxCell id="3" value="" style="rounded=0;whiteSpace=wrap;html=1;fillColor=#0050ef;fontColor=#ffffff;strokeColor=#001DBC;" parent="1" vertex="1">
                    <mxGeometry x="110" y="40" width="1000" height="90" as="geometry"/>
                </mxCell>
                <mxCell id="4" value="" style="ellipse;whiteSpace=wrap;html=1;" parent="1" vertex="1">
                    <mxGeometry x="120" y="45" width="80" height="65" as="geometry"/>
                </mxCell>
                <mxCell id="5" value="Logo" style="rounded=0;whiteSpace=wrap;html=1;" parent="1" vertex="1">
                    <mxGeometry x="200" y="62.5" width="80" height="30" as="geometry"/>
                </mxCell>
                <mxCell id="6" value="Home | Contact" style="rounded=0;whiteSpace=wrap;html=1;" parent="1" vertex="1">
                    <mxGeometry x="585" y="65" width="180" height="30" as="geometry"/>
                </mxCell>
                <mxCell id="7" value="Hello, username | My account | Logout" style="rounded=0;whiteSpace=wrap;html=1;" parent="1" vertex="1">
                    <mxGeometry x="790" y="70" width="220" height="30" as="geometry"/>
                </mxCell>
                <mxCell id="8" value="Surch" style="rounded=0;whiteSpace=wrap;html=1;" parent="1" vertex="1">
                    <mxGeometry x="320" y="65" width="180" height="40" as="geometry"/>
                </mxCell>
                <mxCell id="9" value="Card" style="rounded=0;whiteSpace=wrap;html=1;" parent="1" vertex="1">
                    <mxGeometry x="1020" y="60" width="80" height="50" as="geometry"/>
                </mxCell>
                <mxCell id="11" value="&lt;font style=&quot;font-size: 48px;&quot;&gt;Carousel&lt;/font&gt;" style="rounded=0;whiteSpace=wrap;html=1;" parent="1" vertex="1">
                    <mxGeometry x="110" y="130" width="1000" height="370" as="geometry"/>
                </mxCell>
                <mxCell id="12" value="Footer" style="rounded=0;whiteSpace=wrap;html=1;fontSize=48;" parent="1" vertex="1">
                    <mxGeometry x="110" y="1410" width="1000" height="140" as="geometry"/>
                </mxCell>
                <mxCell id="13" value="carousel may be || products sale" style="rounded=0;whiteSpace=wrap;html=1;fontSize=48;" parent="1" vertex="1">
                    <mxGeometry x="110" y="1230" width="990" height="170" as="geometry"/>
                </mxCell>
                <mxCell id="14" value="&lt;font style=&quot;font-size: 24px;&quot;&gt;Filter by...&lt;/font&gt;" style="rounded=0;whiteSpace=wrap;html=1;fontSize=48;" parent="1" vertex="1">
                    <mxGeometry x="130" y="510" width="280" height="40" as="geometry"/>
                </mxCell>
                <mxCell id="15" value="" style="rounded=1;whiteSpace=wrap;html=1;fontSize=24;" parent="1" vertex="1">
                    <mxGeometry x="150" y="580" width="210" height="270" as="geometry"/>
                </mxCell>
                <mxCell id="16" value="" style="rounded=1;whiteSpace=wrap;html=1;fontSize=24;" parent="1" vertex="1">
                    <mxGeometry x="160" y="590" width="190" height="120" as="geometry"/>
                </mxCell>
                <mxCell id="17" value="" style="rounded=0;whiteSpace=wrap;html=1;fontSize=24;" parent="1" vertex="1">
                    <mxGeometry x="170" y="730" width="170" height="60" as="geometry"/>
                </mxCell>
                <mxCell id="19" value="&lt;font style=&quot;font-size: 14px;&quot;&gt;Add to acrd&lt;/font&gt;" style="rounded=1;whiteSpace=wrap;html=1;fontSize=24;" parent="1" vertex="1">
                    <mxGeometry x="170" y="800" width="80" height="30" as="geometry"/>
                </mxCell>
                <mxCell id="20" value="" style="rounded=1;whiteSpace=wrap;html=1;fontSize=24;" parent="1" vertex="1">
                    <mxGeometry x="400" y="578" width="210" height="270" as="geometry"/>
                </mxCell>
                <mxCell id="21" value="" style="rounded=1;whiteSpace=wrap;html=1;fontSize=24;" parent="1" vertex="1">
                    <mxGeometry x="410" y="588" width="190" height="120" as="geometry"/>
                </mxCell>
                <mxCell id="22" value="" style="rounded=0;whiteSpace=wrap;html=1;fontSize=24;" parent="1" vertex="1">
                    <mxGeometry x="420" y="728" width="170" height="60" as="geometry"/>
                </mxCell>
                <mxCell id="23" value="&lt;font style=&quot;font-size: 14px;&quot;&gt;Add to acrd&lt;/font&gt;" style="rounded=1;whiteSpace=wrap;html=1;fontSize=24;" parent="1" vertex="1">
                    <mxGeometry x="420" y="798" width="80" height="30" as="geometry"/>
                </mxCell>
                <mxCell id="24" value="" style="rounded=1;whiteSpace=wrap;html=1;fontSize=24;" parent="1" vertex="1">
                    <mxGeometry x="640" y="578" width="210" height="270" as="geometry"/>
                </mxCell>
                <mxCell id="25" value="" style="rounded=1;whiteSpace=wrap;html=1;fontSize=24;" parent="1" vertex="1">
                    <mxGeometry x="650" y="588" width="190" height="120" as="geometry"/>
                </mxCell>
                <mxCell id="26" value="" style="rounded=0;whiteSpace=wrap;html=1;fontSize=24;" parent="1" vertex="1">
                    <mxGeometry x="660" y="728" width="170" height="60" as="geometry"/>
                </mxCell>
                <mxCell id="27" value="&lt;font style=&quot;font-size: 14px;&quot;&gt;Add to acrd&lt;/font&gt;" style="rounded=1;whiteSpace=wrap;html=1;fontSize=24;" parent="1" vertex="1">
                    <mxGeometry x="660" y="798" width="80" height="30" as="geometry"/>
                </mxCell>
                <mxCell id="28" value="" style="rounded=1;whiteSpace=wrap;html=1;fontSize=24;" parent="1" vertex="1">
                    <mxGeometry x="880" y="578" width="210" height="270" as="geometry"/>
                </mxCell>
                <mxCell id="29" value="" style="rounded=1;whiteSpace=wrap;html=1;fontSize=24;" parent="1" vertex="1">
                    <mxGeometry x="890" y="588" width="190" height="120" as="geometry"/>
                </mxCell>
                <mxCell id="30" value="" style="rounded=0;whiteSpace=wrap;html=1;fontSize=24;" parent="1" vertex="1">
                    <mxGeometry x="900" y="728" width="170" height="60" as="geometry"/>
                </mxCell>
                <mxCell id="31" value="&lt;font style=&quot;font-size: 14px;&quot;&gt;Add to acrd&lt;/font&gt;" style="rounded=1;whiteSpace=wrap;html=1;fontSize=24;" parent="1" vertex="1">
                    <mxGeometry x="900" y="798" width="80" height="30" as="geometry"/>
                </mxCell>
                <mxCell id="32" value="" style="rounded=0;whiteSpace=wrap;html=1;" parent="1" vertex="1">
                    <mxGeometry x="1330" y="110" width="1004" height="1510" as="geometry"/>
                </mxCell>
                <mxCell id="33" value="" style="rounded=0;whiteSpace=wrap;html=1;fillColor=#0050ef;fontColor=#ffffff;strokeColor=#001DBC;" parent="1" vertex="1">
                    <mxGeometry x="1330" y="30" width="1004" height="90" as="geometry"/>
                </mxCell>
                <mxCell id="34" value="" style="ellipse;whiteSpace=wrap;html=1;" parent="1" vertex="1">
                    <mxGeometry x="1340" y="35" width="84" height="65" as="geometry"/>
                </mxCell>
                <mxCell id="35" value="Logo" style="rounded=0;whiteSpace=wrap;html=1;" parent="1" vertex="1">
                    <mxGeometry x="1420" y="52.5" width="84" height="30" as="geometry"/>
                </mxCell>
                <mxCell id="36" value="Home | About | Contact" style="rounded=0;whiteSpace=wrap;html=1;" parent="1" vertex="1">
                    <mxGeometry x="1805" y="55" width="184" height="30" as="geometry"/>
                </mxCell>
                <mxCell id="37" value="Hello, username | My account | Logout" style="rounded=0;whiteSpace=wrap;html=1;" parent="1" vertex="1">
                    <mxGeometry x="2010" y="40" width="224" height="30" as="geometry"/>
                </mxCell>
                <mxCell id="38" value="Surch" style="rounded=0;whiteSpace=wrap;html=1;" parent="1" vertex="1">
                    <mxGeometry x="1560" y="55" width="164" height="40" as="geometry"/>
                </mxCell>
                <mxCell id="39" value="Card" style="rounded=0;whiteSpace=wrap;html=1;" parent="1" vertex="1">
                    <mxGeometry x="2240" y="50" width="84" height="50" as="geometry"/>
                </mxCell>
                <mxCell id="41" value="Footer" style="rounded=0;whiteSpace=wrap;html=1;fontSize=48;" parent="1" vertex="1">
                    <mxGeometry x="1330" y="1480" width="1004" height="140" as="geometry"/>
                </mxCell>
                <mxCell id="60" value="&lt;font style=&quot;font-size: 18px;&quot;&gt;First mame&lt;/font&gt;" style="rounded=1;whiteSpace=wrap;html=1;fontSize=14;" parent="1" vertex="1">
                    <mxGeometry x="1450" y="250" width="724" height="40" as="geometry"/>
                </mxCell>
                <mxCell id="61" value="&lt;font style=&quot;font-size: 18px;&quot;&gt;Last Name&lt;/font&gt;" style="rounded=1;whiteSpace=wrap;html=1;fontSize=14;" parent="1" vertex="1">
                    <mxGeometry x="1450" y="310" width="724" height="40" as="geometry"/>
                </mxCell>
                <mxCell id="62" value="&lt;font style=&quot;font-size: 18px;&quot;&gt;Email&lt;/font&gt;" style="rounded=1;whiteSpace=wrap;html=1;fontSize=14;" parent="1" vertex="1">
                    <mxGeometry x="1450" y="368" width="724" height="40" as="geometry"/>
                </mxCell>
                <mxCell id="63" value="&lt;font size=&quot;3&quot;&gt;Street&lt;/font&gt;" style="rounded=1;whiteSpace=wrap;html=1;fontSize=14;" parent="1" vertex="1">
                    <mxGeometry x="1450" y="437" width="724" height="40" as="geometry"/>
                </mxCell>
                <mxCell id="64" value="&lt;font size=&quot;3&quot;&gt;House&lt;/font&gt;" style="rounded=1;whiteSpace=wrap;html=1;fontSize=14;" parent="1" vertex="1">
                    <mxGeometry x="1450" y="500" width="724" height="36" as="geometry"/>
                </mxCell>
                <mxCell id="65" value="&lt;font size=&quot;3&quot;&gt;City&lt;/font&gt;" style="rounded=1;whiteSpace=wrap;html=1;fontSize=14;" parent="1" vertex="1">
                    <mxGeometry x="1450" y="560" width="724" height="36" as="geometry"/>
                </mxCell>
                <mxCell id="66" value="&lt;font size=&quot;3&quot;&gt;Zip code&lt;br&gt;&lt;/font&gt;" style="rounded=1;whiteSpace=wrap;html=1;fontSize=14;" parent="1" vertex="1">
                    <mxGeometry x="1450" y="610" width="724" height="36" as="geometry"/>
                </mxCell>
                <mxCell id="67" value="&lt;font size=&quot;3&quot;&gt;Phone&lt;br&gt;&lt;/font&gt;" style="rounded=1;whiteSpace=wrap;html=1;fontSize=14;" parent="1" vertex="1">
                    <mxGeometry x="1450" y="660" width="724" height="36" as="geometry"/>
                </mxCell>
                <mxCell id="68" value="&lt;font size=&quot;3&quot;&gt;Country&lt;br&gt;&lt;/font&gt;" style="rounded=1;whiteSpace=wrap;html=1;fontSize=14;" parent="1" vertex="1">
                    <mxGeometry x="1450" y="710" width="724" height="36" as="geometry"/>
                </mxCell>
                <mxCell id="69" value="&lt;font size=&quot;3&quot;&gt;Picture (File upload)&lt;br&gt;&lt;/font&gt;" style="rounded=1;whiteSpace=wrap;html=1;fontSize=14;" parent="1" vertex="1">
                    <mxGeometry x="1450" y="760" width="724" height="36" as="geometry"/>
                </mxCell>
                <mxCell id="70" value="&lt;font size=&quot;3&quot;&gt;Pass&lt;br&gt;&lt;/font&gt;" style="rounded=1;whiteSpace=wrap;html=1;fontSize=14;" parent="1" vertex="1">
                    <mxGeometry x="1450" y="810" width="724" height="36" as="geometry"/>
                </mxCell>
                <mxCell id="71" value="&lt;font size=&quot;3&quot;&gt;Pass confirm&lt;br&gt;&lt;/font&gt;" style="rounded=1;whiteSpace=wrap;html=1;fontSize=14;" parent="1" vertex="1">
                    <mxGeometry x="1450" y="870" width="724" height="36" as="geometry"/>
                </mxCell>
                <mxCell id="72" value="&lt;font size=&quot;3&quot;&gt;Submit&lt;br&gt;&lt;/font&gt;" style="rounded=1;whiteSpace=wrap;html=1;fontSize=14;" parent="1" vertex="1">
                    <mxGeometry x="1470" y="1210" width="174" height="50" as="geometry"/>
                </mxCell>
                <mxCell id="74" value="Hay, can I halp you?" style="rounded=1;whiteSpace=wrap;html=1;fontSize=18;" parent="1" vertex="1">
                    <mxGeometry x="940" y="1020" width="160" height="200" as="geometry"/>
                </mxCell>
                <mxCell id="75" value="" style="rounded=0;whiteSpace=wrap;html=1;fontSize=18;" parent="1" vertex="1">
                    <mxGeometry x="960" y="1180" width="120" height="30" as="geometry"/>
                </mxCell>
                <mxCell id="76" value="&lt;font style=&quot;font-size: 36px;&quot;&gt;?&lt;/font&gt;" style="ellipse;whiteSpace=wrap;html=1;aspect=fixed;fontSize=18;" parent="1" vertex="1">
                    <mxGeometry x="980" y="1020" width="80" height="80" as="geometry"/>
                </mxCell>
                <mxCell id="77" value="&lt;font style=&quot;font-size: 14px;&quot;&gt;I agree bla bla bla&lt;/font&gt;" style="rounded=0;whiteSpace=wrap;html=1;fontSize=36;" parent="1" vertex="1">
                    <mxGeometry x="1480" y="1150" width="144" height="30" as="geometry"/>
                </mxCell>
                <mxCell id="79" value="" style="rounded=0;whiteSpace=wrap;html=1;" parent="1" vertex="1">
                    <mxGeometry x="2510" y="119" width="1004" height="1510" as="geometry"/>
                </mxCell>
                <mxCell id="80" value="" style="rounded=0;whiteSpace=wrap;html=1;fillColor=#0050ef;fontColor=#ffffff;strokeColor=#001DBC;" parent="1" vertex="1">
                    <mxGeometry x="2510" y="39" width="1004" height="90" as="geometry"/>
                </mxCell>
                <mxCell id="81" value="" style="ellipse;whiteSpace=wrap;html=1;" parent="1" vertex="1">
                    <mxGeometry x="2520" y="44" width="84" height="65" as="geometry"/>
                </mxCell>
                <mxCell id="82" value="Logo" style="rounded=0;whiteSpace=wrap;html=1;" parent="1" vertex="1">
                    <mxGeometry x="2600" y="61.5" width="84" height="30" as="geometry"/>
                </mxCell>
                <mxCell id="83" value="Home | About | Contact" style="rounded=0;whiteSpace=wrap;html=1;" parent="1" vertex="1">
                    <mxGeometry x="2985" y="64" width="184" height="30" as="geometry"/>
                </mxCell>
                <mxCell id="84" value="Hello, username | My account | Logout" style="rounded=0;whiteSpace=wrap;html=1;" parent="1" vertex="1">
                    <mxGeometry x="3190" y="69" width="224" height="30" as="geometry"/>
                </mxCell>
                <mxCell id="85" value="Surch" style="rounded=0;whiteSpace=wrap;html=1;" parent="1" vertex="1">
                    <mxGeometry x="2740" y="64" width="164" height="40" as="geometry"/>
                </mxCell>
                <mxCell id="86" value="Card" style="rounded=0;whiteSpace=wrap;html=1;" parent="1" vertex="1">
                    <mxGeometry x="3420" y="59" width="84" height="50" as="geometry"/>
                </mxCell>
                <mxCell id="87" value="Footer" style="rounded=0;whiteSpace=wrap;html=1;fontSize=48;" parent="1" vertex="1">
                    <mxGeometry x="2510" y="1489" width="1004" height="140" as="geometry"/>
                </mxCell>
                <mxCell id="103" value="&lt;font style=&quot;font-size: 18px;&quot;&gt;First mame&lt;/font&gt;" style="rounded=1;whiteSpace=wrap;html=1;fontSize=14;" parent="1" vertex="1">
                    <mxGeometry x="2650" y="256" width="724" height="40" as="geometry"/>
                </mxCell>
                <mxCell id="104" value="&lt;font style=&quot;font-size: 18px;&quot;&gt;Last Name&lt;/font&gt;" style="rounded=1;whiteSpace=wrap;html=1;fontSize=14;" parent="1" vertex="1">
                    <mxGeometry x="2650" y="316" width="724" height="40" as="geometry"/>
                </mxCell>
                <mxCell id="105" value="&lt;font style=&quot;font-size: 18px;&quot;&gt;Email&lt;/font&gt;" style="rounded=1;whiteSpace=wrap;html=1;fontSize=14;" parent="1" vertex="1">
                    <mxGeometry x="2650" y="374" width="724" height="40" as="geometry"/>
                </mxCell>
                <mxCell id="106" value="&lt;font style=&quot;font-size: 18px;&quot;&gt;Message&lt;/font&gt;" style="rounded=1;whiteSpace=wrap;html=1;fontSize=14;" parent="1" vertex="1">
                    <mxGeometry x="2650" y="452" width="710" height="258" as="geometry"/>
                </mxCell>
                <mxCell id="107" value="&lt;font size=&quot;3&quot;&gt;Send&lt;br&gt;&lt;/font&gt;" style="rounded=1;whiteSpace=wrap;html=1;fontSize=14;" parent="1" vertex="1">
                    <mxGeometry x="2660" y="770" width="174" height="50" as="geometry"/>
                </mxCell>
                <mxCell id="108" value="Login | Register" style="rounded=0;whiteSpace=wrap;html=1;" parent="1" vertex="1">
                    <mxGeometry x="2010" y="75" width="224" height="30" as="geometry"/>
                </mxCell>
                <mxCell id="109" value="&lt;font style=&quot;font-size: 24px;&quot;&gt;Contact&lt;/font&gt;" style="rounded=0;whiteSpace=wrap;html=1;fontSize=14;" parent="1" vertex="1">
                    <mxGeometry x="2868.5" y="160" width="287" height="60" as="geometry"/>
                </mxCell>
                <mxCell id="110" value="&lt;font style=&quot;font-size: 24px;&quot;&gt;Register&lt;/font&gt;" style="rounded=0;whiteSpace=wrap;html=1;fontSize=14;" parent="1" vertex="1">
                    <mxGeometry x="1668.5" y="150" width="287" height="60" as="geometry"/>
                </mxCell>
                <mxCell id="111" value="" style="rounded=0;whiteSpace=wrap;html=1;" parent="1" vertex="1">
                    <mxGeometry x="1330" y="1840" width="1004" height="1510" as="geometry"/>
                </mxCell>
                <mxCell id="112" value="" style="rounded=0;whiteSpace=wrap;html=1;fillColor=#0050ef;fontColor=#ffffff;strokeColor=#001DBC;" parent="1" vertex="1">
                    <mxGeometry x="1330" y="1760" width="1004" height="90" as="geometry"/>
                </mxCell>
                <mxCell id="113" value="" style="ellipse;whiteSpace=wrap;html=1;" parent="1" vertex="1">
                    <mxGeometry x="1340" y="1765" width="84" height="65" as="geometry"/>
                </mxCell>
                <mxCell id="114" value="Logo" style="rounded=0;whiteSpace=wrap;html=1;" parent="1" vertex="1">
                    <mxGeometry x="1420" y="1782.5" width="84" height="30" as="geometry"/>
                </mxCell>
                <mxCell id="115" value="Home | About | Contact" style="rounded=0;whiteSpace=wrap;html=1;" parent="1" vertex="1">
                    <mxGeometry x="1805" y="1785" width="184" height="30" as="geometry"/>
                </mxCell>
                <mxCell id="116" value="Hello, username | My account | Logout" style="rounded=0;whiteSpace=wrap;html=1;" parent="1" vertex="1">
                    <mxGeometry x="2010" y="1770" width="224" height="30" as="geometry"/>
                </mxCell>
                <mxCell id="117" value="Surch" style="rounded=0;whiteSpace=wrap;html=1;" parent="1" vertex="1">
                    <mxGeometry x="1560" y="1785" width="164" height="40" as="geometry"/>
                </mxCell>
                <mxCell id="118" value="Card" style="rounded=0;whiteSpace=wrap;html=1;" parent="1" vertex="1">
                    <mxGeometry x="2240" y="1780" width="84" height="50" as="geometry"/>
                </mxCell>
                <mxCell id="119" value="Footer" style="rounded=0;whiteSpace=wrap;html=1;fontSize=48;" parent="1" vertex="1">
                    <mxGeometry x="1330" y="3210" width="1004" height="140" as="geometry"/>
                </mxCell>
                <mxCell id="120" value="&lt;font style=&quot;font-size: 18px;&quot;&gt;First mame&lt;/font&gt;" style="rounded=1;whiteSpace=wrap;html=1;fontSize=14;" parent="1" vertex="1">
                    <mxGeometry x="1450" y="1980" width="724" height="40" as="geometry"/>
                </mxCell>
                <mxCell id="121" value="&lt;font style=&quot;font-size: 18px;&quot;&gt;Last Name&lt;/font&gt;" style="rounded=1;whiteSpace=wrap;html=1;fontSize=14;" parent="1" vertex="1">
                    <mxGeometry x="1450" y="2040" width="724" height="40" as="geometry"/>
                </mxCell>
                <mxCell id="122" value="&lt;font style=&quot;font-size: 18px;&quot;&gt;Email&lt;/font&gt;" style="rounded=1;whiteSpace=wrap;html=1;fontSize=14;" parent="1" vertex="1">
                    <mxGeometry x="1450" y="2098" width="724" height="40" as="geometry"/>
                </mxCell>
                <mxCell id="123" value="&lt;font size=&quot;3&quot;&gt;Street&lt;/font&gt;" style="rounded=1;whiteSpace=wrap;html=1;fontSize=14;" parent="1" vertex="1">
                    <mxGeometry x="1450" y="2167" width="724" height="40" as="geometry"/>
                </mxCell>
                <mxCell id="124" value="&lt;font size=&quot;3&quot;&gt;House&lt;/font&gt;" style="rounded=1;whiteSpace=wrap;html=1;fontSize=14;" parent="1" vertex="1">
                    <mxGeometry x="1450" y="2230" width="724" height="36" as="geometry"/>
                </mxCell>
                <mxCell id="125" value="&lt;font size=&quot;3&quot;&gt;City&lt;/font&gt;" style="rounded=1;whiteSpace=wrap;html=1;fontSize=14;" parent="1" vertex="1">
                    <mxGeometry x="1450" y="2290" width="724" height="36" as="geometry"/>
                </mxCell>
                <mxCell id="126" value="&lt;font size=&quot;3&quot;&gt;Zip code&lt;br&gt;&lt;/font&gt;" style="rounded=1;whiteSpace=wrap;html=1;fontSize=14;" parent="1" vertex="1">
                    <mxGeometry x="1450" y="2340" width="724" height="36" as="geometry"/>
                </mxCell>
                <mxCell id="127" value="&lt;font size=&quot;3&quot;&gt;Phone&lt;br&gt;&lt;/font&gt;" style="rounded=1;whiteSpace=wrap;html=1;fontSize=14;" parent="1" vertex="1">
                    <mxGeometry x="1450" y="2390" width="724" height="36" as="geometry"/>
                </mxCell>
                <mxCell id="128" value="&lt;font size=&quot;3&quot;&gt;Country&lt;br&gt;&lt;/font&gt;" style="rounded=1;whiteSpace=wrap;html=1;fontSize=14;" parent="1" vertex="1">
                    <mxGeometry x="1450" y="2440" width="724" height="36" as="geometry"/>
                </mxCell>
                <mxCell id="129" value="&lt;font size=&quot;3&quot;&gt;Picture (File upload)&lt;br&gt;&lt;/font&gt;" style="rounded=1;whiteSpace=wrap;html=1;fontSize=14;" parent="1" vertex="1">
                    <mxGeometry x="1450" y="2490" width="724" height="36" as="geometry"/>
                </mxCell>
                <mxCell id="130" value="&lt;font size=&quot;3&quot;&gt;Pass&lt;br&gt;&lt;/font&gt;" style="rounded=1;whiteSpace=wrap;html=1;fontSize=14;" parent="1" vertex="1">
                    <mxGeometry x="1450" y="2540" width="724" height="36" as="geometry"/>
                </mxCell>
                <mxCell id="131" value="&lt;font size=&quot;3&quot;&gt;Pass confirm&lt;br&gt;&lt;/font&gt;" style="rounded=1;whiteSpace=wrap;html=1;fontSize=14;" parent="1" vertex="1">
                    <mxGeometry x="1450" y="2600" width="724" height="36" as="geometry"/>
                </mxCell>
                <mxCell id="132" value="&lt;font size=&quot;3&quot;&gt;Submit&lt;br&gt;&lt;/font&gt;" style="rounded=1;whiteSpace=wrap;html=1;fontSize=14;" parent="1" vertex="1">
                    <mxGeometry x="1450" y="2980" width="174" height="50" as="geometry"/>
                </mxCell>
                <mxCell id="133" value="&lt;font size=&quot;3&quot;&gt;Payment ....&lt;br&gt;&lt;/font&gt;" style="rounded=1;whiteSpace=wrap;html=1;fontSize=14;" parent="1" vertex="1">
                    <mxGeometry x="1450" y="2740" width="724" height="36" as="geometry"/>
                </mxCell>
                <mxCell id="135" value="Login | Register" style="rounded=0;whiteSpace=wrap;html=1;" parent="1" vertex="1">
                    <mxGeometry x="2010" y="1805" width="224" height="30" as="geometry"/>
                </mxCell>
                <mxCell id="136" value="&lt;font style=&quot;font-size: 24px;&quot;&gt;Edit account&lt;/font&gt;" style="rounded=0;whiteSpace=wrap;html=1;fontSize=14;" parent="1" vertex="1">
                    <mxGeometry x="1668.5" y="1880" width="287" height="60" as="geometry"/>
                </mxCell>
                <mxCell id="137" value="&lt;font style=&quot;font-size: 48px;&quot;&gt;User&lt;/font&gt;" style="rounded=0;whiteSpace=wrap;html=1;fontSize=14;" parent="1" vertex="1">
                    <mxGeometry x="1600" y="-310" width="440" height="190" as="geometry"/>
                </mxCell>
                <mxCell id="164" value="" style="rounded=0;whiteSpace=wrap;html=1;" parent="1" vertex="1">
                    <mxGeometry x="3650" y="110" width="1004" height="1510" as="geometry"/>
                </mxCell>
                <mxCell id="165" value="" style="rounded=0;whiteSpace=wrap;html=1;fillColor=#0050ef;fontColor=#ffffff;strokeColor=#001DBC;" parent="1" vertex="1">
                    <mxGeometry x="3650" y="30" width="1004" height="90" as="geometry"/>
                </mxCell>
                <mxCell id="166" value="" style="ellipse;whiteSpace=wrap;html=1;" parent="1" vertex="1">
                    <mxGeometry x="3660" y="35" width="84" height="65" as="geometry"/>
                </mxCell>
                <mxCell id="167" value="Logo" style="rounded=0;whiteSpace=wrap;html=1;" parent="1" vertex="1">
                    <mxGeometry x="3740" y="52.5" width="84" height="30" as="geometry"/>
                </mxCell>
                <mxCell id="168" value="Home | About | Contact" style="rounded=0;whiteSpace=wrap;html=1;" parent="1" vertex="1">
                    <mxGeometry x="4125" y="55" width="184" height="30" as="geometry"/>
                </mxCell>
                <mxCell id="169" value="Hello, username | My account | Logout" style="rounded=0;whiteSpace=wrap;html=1;" parent="1" vertex="1">
                    <mxGeometry x="4330" y="40" width="224" height="30" as="geometry"/>
                </mxCell>
                <mxCell id="170" value="Surch" style="rounded=0;whiteSpace=wrap;html=1;" parent="1" vertex="1">
                    <mxGeometry x="3880" y="55" width="164" height="40" as="geometry"/>
                </mxCell>
                <mxCell id="171" value="Card" style="rounded=0;whiteSpace=wrap;html=1;" parent="1" vertex="1">
                    <mxGeometry x="4560" y="50" width="84" height="50" as="geometry"/>
                </mxCell>
                <mxCell id="172" value="Footer" style="rounded=0;whiteSpace=wrap;html=1;fontSize=48;" parent="1" vertex="1">
                    <mxGeometry x="3650" y="1480" width="1004" height="140" as="geometry"/>
                </mxCell>
                <mxCell id="173" value="&lt;font style=&quot;font-size: 18px;&quot;&gt;Name&lt;/font&gt;" style="rounded=1;whiteSpace=wrap;html=1;fontSize=14;" parent="1" vertex="1">
                    <mxGeometry x="3770" y="250" width="724" height="40" as="geometry"/>
                </mxCell>
                <mxCell id="174" value="&lt;font style=&quot;font-size: 18px;&quot;&gt;Price&lt;/font&gt;" style="rounded=1;whiteSpace=wrap;html=1;fontSize=14;" parent="1" vertex="1">
                    <mxGeometry x="3770" y="310" width="724" height="40" as="geometry"/>
                </mxCell>
                <mxCell id="175" value="&lt;font style=&quot;font-size: 18px;&quot;&gt;Categoty&lt;/font&gt;" style="rounded=1;whiteSpace=wrap;html=1;fontSize=14;" parent="1" vertex="1">
                    <mxGeometry x="3770" y="368" width="724" height="40" as="geometry"/>
                </mxCell>
                <mxCell id="182" value="&lt;font size=&quot;3&quot;&gt;Picture (File upload)&lt;br&gt;&lt;/font&gt;" style="rounded=1;whiteSpace=wrap;html=1;fontSize=14;" parent="1" vertex="1">
                    <mxGeometry x="3770" y="434" width="724" height="36" as="geometry"/>
                </mxCell>
                <mxCell id="185" value="&lt;font size=&quot;3&quot;&gt;Submit&lt;br&gt;&lt;/font&gt;" style="rounded=1;whiteSpace=wrap;html=1;fontSize=14;" parent="1" vertex="1">
                    <mxGeometry x="3790" y="1210" width="174" height="50" as="geometry"/>
                </mxCell>
                <mxCell id="188" value="Login | Register" style="rounded=0;whiteSpace=wrap;html=1;" parent="1" vertex="1">
                    <mxGeometry x="4330" y="75" width="224" height="30" as="geometry"/>
                </mxCell>
                <mxCell id="189" value="&lt;font style=&quot;font-size: 24px;&quot;&gt;Add product&lt;/font&gt;" style="rounded=0;whiteSpace=wrap;html=1;fontSize=14;" parent="1" vertex="1">
                    <mxGeometry x="3988.5" y="150" width="287" height="60" as="geometry"/>
                </mxCell>
                <mxCell id="190" value="&lt;font style=&quot;font-size: 48px;&quot;&gt;Product&lt;/font&gt;" style="rounded=0;whiteSpace=wrap;html=1;fontSize=14;" parent="1" vertex="1">
                    <mxGeometry x="3912" y="-320" width="440" height="190" as="geometry"/>
                </mxCell>
                <mxCell id="191" value="" style="rounded=0;whiteSpace=wrap;html=1;" parent="1" vertex="1">
                    <mxGeometry x="3658" y="1798" width="1004" height="1510" as="geometry"/>
                </mxCell>
                <mxCell id="192" value="" style="rounded=0;whiteSpace=wrap;html=1;fillColor=#0050ef;fontColor=#ffffff;strokeColor=#001DBC;" parent="1" vertex="1">
                    <mxGeometry x="3658" y="1718" width="1004" height="90" as="geometry"/>
                </mxCell>
                <mxCell id="193" value="" style="ellipse;whiteSpace=wrap;html=1;" parent="1" vertex="1">
                    <mxGeometry x="3668" y="1723" width="84" height="65" as="geometry"/>
                </mxCell>
                <mxCell id="194" value="Logo" style="rounded=0;whiteSpace=wrap;html=1;" parent="1" vertex="1">
                    <mxGeometry x="3748" y="1740.5" width="84" height="30" as="geometry"/>
                </mxCell>
                <mxCell id="195" value="Home | About | Contact" style="rounded=0;whiteSpace=wrap;html=1;" parent="1" vertex="1">
                    <mxGeometry x="4133" y="1743" width="184" height="30" as="geometry"/>
                </mxCell>
                <mxCell id="196" value="Hello, username | My account | Logout" style="rounded=0;whiteSpace=wrap;html=1;" parent="1" vertex="1">
                    <mxGeometry x="4338" y="1728" width="224" height="30" as="geometry"/>
                </mxCell>
                <mxCell id="197" value="Surch" style="rounded=0;whiteSpace=wrap;html=1;" parent="1" vertex="1">
                    <mxGeometry x="3888" y="1743" width="164" height="40" as="geometry"/>
                </mxCell>
                <mxCell id="198" value="Card" style="rounded=0;whiteSpace=wrap;html=1;" parent="1" vertex="1">
                    <mxGeometry x="4568" y="1738" width="84" height="50" as="geometry"/>
                </mxCell>
                <mxCell id="199" value="Footer" style="rounded=0;whiteSpace=wrap;html=1;fontSize=48;" parent="1" vertex="1">
                    <mxGeometry x="3658" y="3168" width="1004" height="140" as="geometry"/>
                </mxCell>
                <mxCell id="200" value="&lt;font style=&quot;font-size: 18px;&quot;&gt;Name&lt;/font&gt;" style="rounded=1;whiteSpace=wrap;html=1;fontSize=14;" parent="1" vertex="1">
                    <mxGeometry x="3778" y="1938" width="724" height="40" as="geometry"/>
                </mxCell>
                <mxCell id="201" value="&lt;font style=&quot;font-size: 18px;&quot;&gt;Price&lt;/font&gt;" style="rounded=1;whiteSpace=wrap;html=1;fontSize=14;" parent="1" vertex="1">
                    <mxGeometry x="3778" y="1998" width="724" height="40" as="geometry"/>
                </mxCell>
                <mxCell id="202" value="&lt;font style=&quot;font-size: 18px;&quot;&gt;Categoty&lt;/font&gt;" style="rounded=1;whiteSpace=wrap;html=1;fontSize=14;" parent="1" vertex="1">
                    <mxGeometry x="3778" y="2056" width="724" height="40" as="geometry"/>
                </mxCell>
                <mxCell id="209" value="&lt;font size=&quot;3&quot;&gt;Picture (File upload)&lt;br&gt;&lt;/font&gt;" style="rounded=1;whiteSpace=wrap;html=1;fontSize=14;" parent="1" vertex="1">
                    <mxGeometry x="3778" y="2184" width="724" height="36" as="geometry"/>
                </mxCell>
                <mxCell id="212" value="&lt;font size=&quot;3&quot;&gt;Submit&lt;br&gt;&lt;/font&gt;" style="rounded=1;whiteSpace=wrap;html=1;fontSize=14;" parent="1" vertex="1">
                    <mxGeometry x="3798" y="2898" width="174" height="50" as="geometry"/>
                </mxCell>
                <mxCell id="215" value="Login | Register" style="rounded=0;whiteSpace=wrap;html=1;" parent="1" vertex="1">
                    <mxGeometry x="4338" y="1763" width="224" height="30" as="geometry"/>
                </mxCell>
                <mxCell id="216" value="&lt;font style=&quot;font-size: 24px;&quot;&gt;Edit product&lt;/font&gt;" style="rounded=0;whiteSpace=wrap;html=1;fontSize=14;" parent="1" vertex="1">
                    <mxGeometry x="3996.5" y="1838" width="287" height="60" as="geometry"/>
                </mxCell>
                <mxCell id="217" value="" style="rounded=0;whiteSpace=wrap;html=1;" parent="1" vertex="1">
                    <mxGeometry x="2520" y="1838" width="1004" height="1510" as="geometry"/>
                </mxCell>
                <mxCell id="218" value="" style="rounded=0;whiteSpace=wrap;html=1;fillColor=#0050ef;fontColor=#ffffff;strokeColor=#001DBC;" parent="1" vertex="1">
                    <mxGeometry x="2520" y="1758" width="1004" height="90" as="geometry"/>
                </mxCell>
                <mxCell id="219" value="" style="ellipse;whiteSpace=wrap;html=1;" parent="1" vertex="1">
                    <mxGeometry x="2530" y="1763" width="84" height="65" as="geometry"/>
                </mxCell>
                <mxCell id="220" value="Logo" style="rounded=0;whiteSpace=wrap;html=1;" parent="1" vertex="1">
                    <mxGeometry x="2610" y="1780.5" width="84" height="30" as="geometry"/>
                </mxCell>
                <mxCell id="221" value="Home | About | Contact" style="rounded=0;whiteSpace=wrap;html=1;" parent="1" vertex="1">
                    <mxGeometry x="2995" y="1783" width="184" height="30" as="geometry"/>
                </mxCell>
                <mxCell id="222" value="Hello, username | My account | Logout" style="rounded=0;whiteSpace=wrap;html=1;" parent="1" vertex="1">
                    <mxGeometry x="3200" y="1788" width="224" height="30" as="geometry"/>
                </mxCell>
                <mxCell id="223" value="Surch" style="rounded=0;whiteSpace=wrap;html=1;" parent="1" vertex="1">
                    <mxGeometry x="2750" y="1783" width="164" height="40" as="geometry"/>
                </mxCell>
                <mxCell id="224" value="Card" style="rounded=0;whiteSpace=wrap;html=1;" parent="1" vertex="1">
                    <mxGeometry x="3430" y="1778" width="84" height="50" as="geometry"/>
                </mxCell>
                <mxCell id="225" value="Footer" style="rounded=0;whiteSpace=wrap;html=1;fontSize=48;" parent="1" vertex="1">
                    <mxGeometry x="2520" y="3208" width="1004" height="140" as="geometry"/>
                </mxCell>
                <mxCell id="231" value="&lt;font style=&quot;font-size: 24px;&quot;&gt;Account&lt;/font&gt;" style="rounded=0;whiteSpace=wrap;html=1;fontSize=14;" parent="1" vertex="1">
                    <mxGeometry x="2878.5" y="1879" width="287" height="60" as="geometry"/>
                </mxCell>
                <mxCell id="232" value="Photo" style="ellipse;whiteSpace=wrap;html=1;fontSize=48;" parent="1" vertex="1">
                    <mxGeometry x="2614" y="1980" width="246" height="240" as="geometry"/>
                </mxCell>
                <mxCell id="233" value="" style="rounded=0;whiteSpace=wrap;html=1;fontSize=48;" parent="1" vertex="1">
                    <mxGeometry x="2940" y="1988" width="460" height="222" as="geometry"/>
                </mxCell>
                <mxCell id="235" value="&lt;font style=&quot;font-size: 24px;&quot;&gt;F Name&lt;/font&gt;" style="text;html=1;strokeColor=none;fillColor=none;align=center;verticalAlign=middle;whiteSpace=wrap;rounded=0;fontSize=48;" parent="1" vertex="1">
                    <mxGeometry x="2914" y="1998" width="225" height="30" as="geometry"/>
                </mxCell>
                <mxCell id="237" value="&lt;font style=&quot;font-size: 24px;&quot;&gt;L Name&lt;/font&gt;" style="text;html=1;strokeColor=none;fillColor=none;align=center;verticalAlign=middle;whiteSpace=wrap;rounded=0;fontSize=48;" parent="1" vertex="1">
                    <mxGeometry x="2914" y="2038" width="225" height="30" as="geometry"/>
                </mxCell>
                <mxCell id="238" value="&lt;font style=&quot;font-size: 24px;&quot;&gt;All info ....&lt;/font&gt;" style="text;html=1;strokeColor=none;fillColor=none;align=center;verticalAlign=middle;whiteSpace=wrap;rounded=0;fontSize=48;" parent="1" vertex="1">
                    <mxGeometry x="2914" y="2084" width="225" height="30" as="geometry"/>
                </mxCell>
                <mxCell id="239" style="edgeStyle=none;html=1;exitX=0.5;exitY=1;exitDx=0;exitDy=0;entryX=0.574;entryY=1.121;entryDx=0;entryDy=0;entryPerimeter=0;fontSize=24;" parent="1" source="238" target="238" edge="1">
                    <mxGeometry relative="1" as="geometry"/>
                </mxCell>
                <mxCell id="240" value="Table" style="rounded=0;whiteSpace=wrap;html=1;fontSize=24;" parent="1" vertex="1">
                    <mxGeometry x="2630" y="2520" width="770" height="530" as="geometry"/>
                </mxCell>
                <mxCell id="241" value="My orders" style="text;html=1;strokeColor=none;fillColor=none;align=center;verticalAlign=middle;whiteSpace=wrap;rounded=0;fontSize=24;" parent="1" vertex="1">
                    <mxGeometry x="2637" y="2468" width="220" height="30" as="geometry"/>
                </mxCell>
                <mxCell id="245" style="edgeStyle=none;html=1;entryX=1;entryY=0.25;entryDx=0;entryDy=0;fontSize=24;" parent="1" source="244" target="111" edge="1">
                    <mxGeometry relative="1" as="geometry"/>
                </mxCell>
                <mxCell id="244" value="Edit my account" style="rounded=1;whiteSpace=wrap;html=1;fontSize=24;" parent="1" vertex="1">
                    <mxGeometry x="2940" y="2236" width="190" height="44" as="geometry"/>
                </mxCell>
                <mxCell id="246" value="" style="rounded=0;whiteSpace=wrap;html=1;" parent="1" vertex="1">
                    <mxGeometry x="4850" y="80" width="1004" height="1510" as="geometry"/>
                </mxCell>
                <mxCell id="247" value="" style="rounded=0;whiteSpace=wrap;html=1;fillColor=#0050ef;fontColor=#ffffff;strokeColor=#001DBC;" parent="1" vertex="1">
                    <mxGeometry x="4850" width="1004" height="90" as="geometry"/>
                </mxCell>
                <mxCell id="248" value="" style="ellipse;whiteSpace=wrap;html=1;" parent="1" vertex="1">
                    <mxGeometry x="4860" y="5" width="84" height="65" as="geometry"/>
                </mxCell>
                <mxCell id="249" value="Logo" style="rounded=0;whiteSpace=wrap;html=1;" parent="1" vertex="1">
                    <mxGeometry x="4940" y="22.5" width="84" height="30" as="geometry"/>
                </mxCell>
                <mxCell id="250" value="Home | About | Contact" style="rounded=0;whiteSpace=wrap;html=1;" parent="1" vertex="1">
                    <mxGeometry x="5325" y="25" width="184" height="30" as="geometry"/>
                </mxCell>
                <mxCell id="251" value="Hello, username | My account | Logout" style="rounded=0;whiteSpace=wrap;html=1;" parent="1" vertex="1">
                    <mxGeometry x="5530" y="30" width="224" height="30" as="geometry"/>
                </mxCell>
                <mxCell id="252" value="Surch" style="rounded=0;whiteSpace=wrap;html=1;" parent="1" vertex="1">
                    <mxGeometry x="5080" y="25" width="164" height="40" as="geometry"/>
                </mxCell>
                <mxCell id="253" value="Card" style="rounded=0;whiteSpace=wrap;html=1;" parent="1" vertex="1">
                    <mxGeometry x="5760" y="20" width="84" height="50" as="geometry"/>
                </mxCell>
                <mxCell id="254" value="Footer" style="rounded=0;whiteSpace=wrap;html=1;fontSize=48;" parent="1" vertex="1">
                    <mxGeometry x="4850" y="1450" width="1004" height="140" as="geometry"/>
                </mxCell>
                <mxCell id="255" value="&lt;font style=&quot;font-size: 24px;&quot;&gt;Dashboard products&lt;/font&gt;" style="rounded=0;whiteSpace=wrap;html=1;fontSize=14;" parent="1" vertex="1">
                    <mxGeometry x="5208.5" y="121" width="287" height="60" as="geometry"/>
                </mxCell>
                <mxCell id="265" value="" style="whiteSpace=wrap;html=1;aspect=fixed;fontSize=24;" parent="1" vertex="1">
                    <mxGeometry x="4910" y="250" width="900" height="900" as="geometry"/>
                </mxCell>
                <mxCell id="266" value="" style="rounded=0;whiteSpace=wrap;html=1;fontSize=24;" parent="1" vertex="1">
                    <mxGeometry x="4944" y="330" width="836" height="60" as="geometry"/>
                </mxCell>
                <mxCell id="267" value="id" style="text;html=1;strokeColor=none;fillColor=none;align=center;verticalAlign=middle;whiteSpace=wrap;rounded=0;fontSize=24;" parent="1" vertex="1">
                    <mxGeometry x="4960" y="345" width="60" height="30" as="geometry"/>
                </mxCell>
                <mxCell id="268" value="Name" style="text;html=1;strokeColor=none;fillColor=none;align=center;verticalAlign=middle;whiteSpace=wrap;rounded=0;fontSize=24;" parent="1" vertex="1">
                    <mxGeometry x="5040" y="345" width="60" height="30" as="geometry"/>
                </mxCell>
                <mxCell id="269" value="....." style="text;html=1;strokeColor=none;fillColor=none;align=center;verticalAlign=middle;whiteSpace=wrap;rounded=0;fontSize=24;" parent="1" vertex="1">
                    <mxGeometry x="5130" y="345" width="60" height="30" as="geometry"/>
                </mxCell>
                <mxCell id="270" value="&lt;font style=&quot;font-size: 18px;&quot;&gt;Delete&lt;/font&gt;" style="rounded=1;whiteSpace=wrap;html=1;fontSize=24;" parent="1" vertex="1">
                    <mxGeometry x="5690" y="342" width="64" height="32" as="geometry"/>
                </mxCell>
                <mxCell id="271" value="&lt;font style=&quot;font-size: 18px;&quot;&gt;Edit&lt;/font&gt;" style="rounded=1;whiteSpace=wrap;html=1;fontSize=24;" parent="1" vertex="1">
                    <mxGeometry x="5610" y="342" width="64" height="32" as="geometry"/>
                </mxCell>
                <mxCell id="272" value="&lt;font style=&quot;font-size: 18px;&quot;&gt;View&lt;/font&gt;" style="rounded=1;whiteSpace=wrap;html=1;fontSize=24;" parent="1" vertex="1">
                    <mxGeometry x="5530" y="342" width="64" height="32" as="geometry"/>
                </mxCell>
                <mxCell id="273" value="" style="rounded=0;whiteSpace=wrap;html=1;fontSize=24;" parent="1" vertex="1">
                    <mxGeometry x="4944" y="410" width="836" height="60" as="geometry"/>
                </mxCell>
                <mxCell id="274" value="id" style="text;html=1;strokeColor=none;fillColor=none;align=center;verticalAlign=middle;whiteSpace=wrap;rounded=0;fontSize=24;" parent="1" vertex="1">
                    <mxGeometry x="4960" y="425" width="60" height="30" as="geometry"/>
                </mxCell>
                <mxCell id="275" value="Name" style="text;html=1;strokeColor=none;fillColor=none;align=center;verticalAlign=middle;whiteSpace=wrap;rounded=0;fontSize=24;" parent="1" vertex="1">
                    <mxGeometry x="5040" y="425" width="60" height="30" as="geometry"/>
                </mxCell>
                <mxCell id="276" value="....." style="text;html=1;strokeColor=none;fillColor=none;align=center;verticalAlign=middle;whiteSpace=wrap;rounded=0;fontSize=24;" parent="1" vertex="1">
                    <mxGeometry x="5130" y="425" width="60" height="30" as="geometry"/>
                </mxCell>
                <mxCell id="277" value="&lt;font style=&quot;font-size: 18px;&quot;&gt;Delete&lt;/font&gt;" style="rounded=1;whiteSpace=wrap;html=1;fontSize=24;" parent="1" vertex="1">
                    <mxGeometry x="5690" y="422" width="64" height="32" as="geometry"/>
                </mxCell>
                <mxCell id="278" value="&lt;font style=&quot;font-size: 18px;&quot;&gt;Edit&lt;/font&gt;" style="rounded=1;whiteSpace=wrap;html=1;fontSize=24;" parent="1" vertex="1">
                    <mxGeometry x="5610" y="422" width="64" height="32" as="geometry"/>
                </mxCell>
                <mxCell id="279" value="&lt;font style=&quot;font-size: 18px;&quot;&gt;View&lt;/font&gt;" style="rounded=1;whiteSpace=wrap;html=1;fontSize=24;" parent="1" vertex="1">
                    <mxGeometry x="5530" y="422" width="64" height="32" as="geometry"/>
                </mxCell>
                <mxCell id="280" value="" style="rounded=0;whiteSpace=wrap;html=1;fontSize=24;" parent="1" vertex="1">
                    <mxGeometry x="4944" y="490" width="836" height="60" as="geometry"/>
                </mxCell>
                <mxCell id="281" value="id" style="text;html=1;strokeColor=none;fillColor=none;align=center;verticalAlign=middle;whiteSpace=wrap;rounded=0;fontSize=24;" parent="1" vertex="1">
                    <mxGeometry x="4960" y="505" width="60" height="30" as="geometry"/>
                </mxCell>
                <mxCell id="282" value="Name" style="text;html=1;strokeColor=none;fillColor=none;align=center;verticalAlign=middle;whiteSpace=wrap;rounded=0;fontSize=24;" parent="1" vertex="1">
                    <mxGeometry x="5040" y="505" width="60" height="30" as="geometry"/>
                </mxCell>
                <mxCell id="283" value="....." style="text;html=1;strokeColor=none;fillColor=none;align=center;verticalAlign=middle;whiteSpace=wrap;rounded=0;fontSize=24;" parent="1" vertex="1">
                    <mxGeometry x="5130" y="505" width="60" height="30" as="geometry"/>
                </mxCell>
                <mxCell id="284" value="&lt;font style=&quot;font-size: 18px;&quot;&gt;Delete&lt;/font&gt;" style="rounded=1;whiteSpace=wrap;html=1;fontSize=24;" parent="1" vertex="1">
                    <mxGeometry x="5690" y="502" width="64" height="32" as="geometry"/>
                </mxCell>
                <mxCell id="285" value="&lt;font style=&quot;font-size: 18px;&quot;&gt;Edit&lt;/font&gt;" style="rounded=1;whiteSpace=wrap;html=1;fontSize=24;" parent="1" vertex="1">
                    <mxGeometry x="5610" y="502" width="64" height="32" as="geometry"/>
                </mxCell>
                <mxCell id="286" value="&lt;font style=&quot;font-size: 18px;&quot;&gt;View&lt;/font&gt;" style="rounded=1;whiteSpace=wrap;html=1;fontSize=24;" parent="1" vertex="1">
                    <mxGeometry x="5530" y="502" width="64" height="32" as="geometry"/>
                </mxCell>
                <mxCell id="287" value="" style="rounded=0;whiteSpace=wrap;html=1;fontSize=24;" parent="1" vertex="1">
                    <mxGeometry x="4944" y="570" width="836" height="60" as="geometry"/>
                </mxCell>
                <mxCell id="288" value="id" style="text;html=1;strokeColor=none;fillColor=none;align=center;verticalAlign=middle;whiteSpace=wrap;rounded=0;fontSize=24;" parent="1" vertex="1">
                    <mxGeometry x="4960" y="585" width="60" height="30" as="geometry"/>
                </mxCell>
                <mxCell id="289" value="Name" style="text;html=1;strokeColor=none;fillColor=none;align=center;verticalAlign=middle;whiteSpace=wrap;rounded=0;fontSize=24;" parent="1" vertex="1">
                    <mxGeometry x="5040" y="585" width="60" height="30" as="geometry"/>
                </mxCell>
                <mxCell id="290" value="....." style="text;html=1;strokeColor=none;fillColor=none;align=center;verticalAlign=middle;whiteSpace=wrap;rounded=0;fontSize=24;" parent="1" vertex="1">
                    <mxGeometry x="5130" y="585" width="60" height="30" as="geometry"/>
                </mxCell>
                <mxCell id="291" value="&lt;font style=&quot;font-size: 18px;&quot;&gt;Delete&lt;/font&gt;" style="rounded=1;whiteSpace=wrap;html=1;fontSize=24;" parent="1" vertex="1">
                    <mxGeometry x="5690" y="582" width="64" height="32" as="geometry"/>
                </mxCell>
                <mxCell id="292" value="&lt;font style=&quot;font-size: 18px;&quot;&gt;Edit&lt;/font&gt;" style="rounded=1;whiteSpace=wrap;html=1;fontSize=24;" parent="1" vertex="1">
                    <mxGeometry x="5610" y="582" width="64" height="32" as="geometry"/>
                </mxCell>
                <mxCell id="293" value="&lt;font style=&quot;font-size: 18px;&quot;&gt;View&lt;/font&gt;" style="rounded=1;whiteSpace=wrap;html=1;fontSize=24;" parent="1" vertex="1">
                    <mxGeometry x="5530" y="582" width="64" height="32" as="geometry"/>
                </mxCell>
                <mxCell id="294" value="" style="rounded=0;whiteSpace=wrap;html=1;fontSize=24;" parent="1" vertex="1">
                    <mxGeometry x="4944" y="650" width="836" height="60" as="geometry"/>
                </mxCell>
                <mxCell id="295" value="id" style="text;html=1;strokeColor=none;fillColor=none;align=center;verticalAlign=middle;whiteSpace=wrap;rounded=0;fontSize=24;" parent="1" vertex="1">
                    <mxGeometry x="4960" y="665" width="60" height="30" as="geometry"/>
                </mxCell>
                <mxCell id="296" value="Name" style="text;html=1;strokeColor=none;fillColor=none;align=center;verticalAlign=middle;whiteSpace=wrap;rounded=0;fontSize=24;" parent="1" vertex="1">
                    <mxGeometry x="5040" y="665" width="60" height="30" as="geometry"/>
                </mxCell>
                <mxCell id="297" value="....." style="text;html=1;strokeColor=none;fillColor=none;align=center;verticalAlign=middle;whiteSpace=wrap;rounded=0;fontSize=24;" parent="1" vertex="1">
                    <mxGeometry x="5130" y="665" width="60" height="30" as="geometry"/>
                </mxCell>
                <mxCell id="298" value="&lt;font style=&quot;font-size: 18px;&quot;&gt;Delete&lt;/font&gt;" style="rounded=1;whiteSpace=wrap;html=1;fontSize=24;" parent="1" vertex="1">
                    <mxGeometry x="5690" y="662" width="64" height="32" as="geometry"/>
                </mxCell>
                <mxCell id="299" value="&lt;font style=&quot;font-size: 18px;&quot;&gt;Edit&lt;/font&gt;" style="rounded=1;whiteSpace=wrap;html=1;fontSize=24;" parent="1" vertex="1">
                    <mxGeometry x="5610" y="662" width="64" height="32" as="geometry"/>
                </mxCell>
                <mxCell id="300" value="&lt;font style=&quot;font-size: 18px;&quot;&gt;View&lt;/font&gt;" style="rounded=1;whiteSpace=wrap;html=1;fontSize=24;" parent="1" vertex="1">
                    <mxGeometry x="5530" y="662" width="64" height="32" as="geometry"/>
                </mxCell>
                <mxCell id="301" value="" style="rounded=0;whiteSpace=wrap;html=1;fontSize=24;" parent="1" vertex="1">
                    <mxGeometry x="4944" y="730" width="836" height="60" as="geometry"/>
                </mxCell>
                <mxCell id="302" value="id" style="text;html=1;strokeColor=none;fillColor=none;align=center;verticalAlign=middle;whiteSpace=wrap;rounded=0;fontSize=24;" parent="1" vertex="1">
                    <mxGeometry x="4960" y="745" width="60" height="30" as="geometry"/>
                </mxCell>
                <mxCell id="303" value="Name" style="text;html=1;strokeColor=none;fillColor=none;align=center;verticalAlign=middle;whiteSpace=wrap;rounded=0;fontSize=24;" parent="1" vertex="1">
                    <mxGeometry x="5040" y="745" width="60" height="30" as="geometry"/>
                </mxCell>
                <mxCell id="304" value="....." style="text;html=1;strokeColor=none;fillColor=none;align=center;verticalAlign=middle;whiteSpace=wrap;rounded=0;fontSize=24;" parent="1" vertex="1">
                    <mxGeometry x="5130" y="745" width="60" height="30" as="geometry"/>
                </mxCell>
                <mxCell id="305" value="&lt;font style=&quot;font-size: 18px;&quot;&gt;Delete&lt;/font&gt;" style="rounded=1;whiteSpace=wrap;html=1;fontSize=24;" parent="1" vertex="1">
                    <mxGeometry x="5690" y="742" width="64" height="32" as="geometry"/>
                </mxCell>
                <mxCell id="306" value="&lt;font style=&quot;font-size: 18px;&quot;&gt;Edit&lt;/font&gt;" style="rounded=1;whiteSpace=wrap;html=1;fontSize=24;" parent="1" vertex="1">
                    <mxGeometry x="5610" y="742" width="64" height="32" as="geometry"/>
                </mxCell>
                <mxCell id="307" value="&lt;font style=&quot;font-size: 18px;&quot;&gt;View&lt;/font&gt;" style="rounded=1;whiteSpace=wrap;html=1;fontSize=24;" parent="1" vertex="1">
                    <mxGeometry x="5530" y="742" width="64" height="32" as="geometry"/>
                </mxCell>
                <mxCell id="308" value="&lt;font size=&quot;3&quot;&gt;Delete account&lt;br&gt;&lt;/font&gt;" style="rounded=1;whiteSpace=wrap;html=1;fontSize=14;" parent="1" vertex="1">
                    <mxGeometry x="1460" y="3120" width="174" height="50" as="geometry"/>
                </mxCell>
                <mxCell id="309" value="Add a new product" style="rounded=1;whiteSpace=wrap;html=1;fontSize=18;" parent="1" vertex="1">
                    <mxGeometry x="5600" y="190" width="182" height="40" as="geometry"/>
                </mxCell>
                <mxCell id="312" value="Select: user or admin (ONLY FOR ADMIN)" style="rounded=0;whiteSpace=wrap;html=1;fontSize=18;" parent="1" vertex="1">
                    <mxGeometry x="1450" y="2806" width="710" height="40" as="geometry"/>
                </mxCell>
                <mxCell id="313" value="&lt;span style=&quot;font-size: 48px;&quot;&gt;Admin&lt;/span&gt;" style="rounded=0;whiteSpace=wrap;html=1;fontSize=14;" parent="1" vertex="1">
                    <mxGeometry x="5090" y="-340" width="440" height="190" as="geometry"/>
                </mxCell>
                <mxCell id="315" value="" style="rounded=0;whiteSpace=wrap;html=1;" parent="1" vertex="1">
                    <mxGeometry x="4858" y="1798" width="1004" height="1510" as="geometry"/>
                </mxCell>
                <mxCell id="316" value="" style="rounded=0;whiteSpace=wrap;html=1;fillColor=#0050ef;fontColor=#ffffff;strokeColor=#001DBC;" parent="1" vertex="1">
                    <mxGeometry x="4858" y="1718" width="1004" height="90" as="geometry"/>
                </mxCell>
                <mxCell id="317" value="" style="ellipse;whiteSpace=wrap;html=1;" parent="1" vertex="1">
                    <mxGeometry x="4868" y="1723" width="84" height="65" as="geometry"/>
                </mxCell>
                <mxCell id="318" value="Logo" style="rounded=0;whiteSpace=wrap;html=1;" parent="1" vertex="1">
                    <mxGeometry x="4948" y="1740.5" width="84" height="30" as="geometry"/>
                </mxCell>
                <mxCell id="319" value="Home | About | Contact" style="rounded=0;whiteSpace=wrap;html=1;" parent="1" vertex="1">
                    <mxGeometry x="5333" y="1743" width="184" height="30" as="geometry"/>
                </mxCell>
                <mxCell id="320" value="Hello, username | My account | Logout" style="rounded=0;whiteSpace=wrap;html=1;" parent="1" vertex="1">
                    <mxGeometry x="5538" y="1748" width="224" height="30" as="geometry"/>
                </mxCell>
                <mxCell id="321" value="Surch" style="rounded=0;whiteSpace=wrap;html=1;" parent="1" vertex="1">
                    <mxGeometry x="5088" y="1743" width="164" height="40" as="geometry"/>
                </mxCell>
                <mxCell id="322" value="Card" style="rounded=0;whiteSpace=wrap;html=1;" parent="1" vertex="1">
                    <mxGeometry x="5768" y="1738" width="84" height="50" as="geometry"/>
                </mxCell>
                <mxCell id="323" value="Footer" style="rounded=0;whiteSpace=wrap;html=1;fontSize=48;" parent="1" vertex="1">
                    <mxGeometry x="4858" y="3168" width="1004" height="140" as="geometry"/>
                </mxCell>
                <mxCell id="324" value="&lt;font style=&quot;font-size: 24px;&quot;&gt;Dashboard users&lt;/font&gt;" style="rounded=0;whiteSpace=wrap;html=1;fontSize=14;" parent="1" vertex="1">
                    <mxGeometry x="5216.5" y="1839" width="287" height="60" as="geometry"/>
                </mxCell>
                <mxCell id="325" value="" style="whiteSpace=wrap;html=1;aspect=fixed;fontSize=24;" parent="1" vertex="1">
                    <mxGeometry x="4918" y="1968" width="900" height="900" as="geometry"/>
                </mxCell>
                <mxCell id="326" value="" style="rounded=0;whiteSpace=wrap;html=1;fontSize=24;" parent="1" vertex="1">
                    <mxGeometry x="4952" y="2048" width="836" height="60" as="geometry"/>
                </mxCell>
                <mxCell id="327" value="id" style="text;html=1;strokeColor=none;fillColor=none;align=center;verticalAlign=middle;whiteSpace=wrap;rounded=0;fontSize=24;" parent="1" vertex="1">
                    <mxGeometry x="4968" y="2063" width="60" height="30" as="geometry"/>
                </mxCell>
                <mxCell id="328" value="Name" style="text;html=1;strokeColor=none;fillColor=none;align=center;verticalAlign=middle;whiteSpace=wrap;rounded=0;fontSize=24;" parent="1" vertex="1">
                    <mxGeometry x="5048" y="2063" width="60" height="30" as="geometry"/>
                </mxCell>
                <mxCell id="329" value="....." style="text;html=1;strokeColor=none;fillColor=none;align=center;verticalAlign=middle;whiteSpace=wrap;rounded=0;fontSize=24;" parent="1" vertex="1">
                    <mxGeometry x="5138" y="2063" width="60" height="30" as="geometry"/>
                </mxCell>
                <mxCell id="330" value="&lt;font style=&quot;font-size: 18px;&quot;&gt;Delete&lt;/font&gt;" style="rounded=1;whiteSpace=wrap;html=1;fontSize=24;" parent="1" vertex="1">
                    <mxGeometry x="5698" y="2060" width="64" height="32" as="geometry"/>
                </mxCell>
                <mxCell id="331" value="&lt;font style=&quot;font-size: 18px;&quot;&gt;Edit&lt;/font&gt;" style="rounded=1;whiteSpace=wrap;html=1;fontSize=24;" parent="1" vertex="1">
                    <mxGeometry x="5618" y="2060" width="64" height="32" as="geometry"/>
                </mxCell>
                <mxCell id="332" value="&lt;font style=&quot;font-size: 18px;&quot;&gt;View&lt;/font&gt;" style="rounded=1;whiteSpace=wrap;html=1;fontSize=24;" parent="1" vertex="1">
                    <mxGeometry x="5538" y="2060" width="64" height="32" as="geometry"/>
                </mxCell>
                <mxCell id="333" value="" style="rounded=0;whiteSpace=wrap;html=1;fontSize=24;" parent="1" vertex="1">
                    <mxGeometry x="4952" y="2128" width="836" height="60" as="geometry"/>
                </mxCell>
                <mxCell id="334" value="id" style="text;html=1;strokeColor=none;fillColor=none;align=center;verticalAlign=middle;whiteSpace=wrap;rounded=0;fontSize=24;" parent="1" vertex="1">
                    <mxGeometry x="4968" y="2143" width="60" height="30" as="geometry"/>
                </mxCell>
                <mxCell id="335" value="Name" style="text;html=1;strokeColor=none;fillColor=none;align=center;verticalAlign=middle;whiteSpace=wrap;rounded=0;fontSize=24;" parent="1" vertex="1">
                    <mxGeometry x="5048" y="2143" width="60" height="30" as="geometry"/>
                </mxCell>
                <mxCell id="336" value="....." style="text;html=1;strokeColor=none;fillColor=none;align=center;verticalAlign=middle;whiteSpace=wrap;rounded=0;fontSize=24;" parent="1" vertex="1">
                    <mxGeometry x="5138" y="2143" width="60" height="30" as="geometry"/>
                </mxCell>
                <mxCell id="337" value="&lt;font style=&quot;font-size: 18px;&quot;&gt;Delete&lt;/font&gt;" style="rounded=1;whiteSpace=wrap;html=1;fontSize=24;" parent="1" vertex="1">
                    <mxGeometry x="5698" y="2140" width="64" height="32" as="geometry"/>
                </mxCell>
                <mxCell id="338" value="&lt;font style=&quot;font-size: 18px;&quot;&gt;Edit&lt;/font&gt;" style="rounded=1;whiteSpace=wrap;html=1;fontSize=24;" parent="1" vertex="1">
                    <mxGeometry x="5618" y="2140" width="64" height="32" as="geometry"/>
                </mxCell>
                <mxCell id="339" value="&lt;font style=&quot;font-size: 18px;&quot;&gt;View&lt;/font&gt;" style="rounded=1;whiteSpace=wrap;html=1;fontSize=24;" parent="1" vertex="1">
                    <mxGeometry x="5538" y="2140" width="64" height="32" as="geometry"/>
                </mxCell>
                <mxCell id="340" value="" style="rounded=0;whiteSpace=wrap;html=1;fontSize=24;" parent="1" vertex="1">
                    <mxGeometry x="4952" y="2208" width="836" height="60" as="geometry"/>
                </mxCell>
                <mxCell id="341" value="id" style="text;html=1;strokeColor=none;fillColor=none;align=center;verticalAlign=middle;whiteSpace=wrap;rounded=0;fontSize=24;" parent="1" vertex="1">
                    <mxGeometry x="4968" y="2223" width="60" height="30" as="geometry"/>
                </mxCell>
                <mxCell id="342" value="Name" style="text;html=1;strokeColor=none;fillColor=none;align=center;verticalAlign=middle;whiteSpace=wrap;rounded=0;fontSize=24;" parent="1" vertex="1">
                    <mxGeometry x="5048" y="2223" width="60" height="30" as="geometry"/>
                </mxCell>
                <mxCell id="343" value="....." style="text;html=1;strokeColor=none;fillColor=none;align=center;verticalAlign=middle;whiteSpace=wrap;rounded=0;fontSize=24;" parent="1" vertex="1">
                    <mxGeometry x="5138" y="2223" width="60" height="30" as="geometry"/>
                </mxCell>
                <mxCell id="344" value="&lt;font style=&quot;font-size: 18px;&quot;&gt;Delete&lt;/font&gt;" style="rounded=1;whiteSpace=wrap;html=1;fontSize=24;" parent="1" vertex="1">
                    <mxGeometry x="5698" y="2220" width="64" height="32" as="geometry"/>
                </mxCell>
                <mxCell id="345" value="&lt;font style=&quot;font-size: 18px;&quot;&gt;Edit&lt;/font&gt;" style="rounded=1;whiteSpace=wrap;html=1;fontSize=24;" parent="1" vertex="1">
                    <mxGeometry x="5618" y="2220" width="64" height="32" as="geometry"/>
                </mxCell>
                <mxCell id="346" value="&lt;font style=&quot;font-size: 18px;&quot;&gt;View&lt;/font&gt;" style="rounded=1;whiteSpace=wrap;html=1;fontSize=24;" parent="1" vertex="1">
                    <mxGeometry x="5538" y="2220" width="64" height="32" as="geometry"/>
                </mxCell>
                <mxCell id="347" value="" style="rounded=0;whiteSpace=wrap;html=1;fontSize=24;" parent="1" vertex="1">
                    <mxGeometry x="4952" y="2288" width="836" height="60" as="geometry"/>
                </mxCell>
                <mxCell id="348" value="id" style="text;html=1;strokeColor=none;fillColor=none;align=center;verticalAlign=middle;whiteSpace=wrap;rounded=0;fontSize=24;" parent="1" vertex="1">
                    <mxGeometry x="4968" y="2303" width="60" height="30" as="geometry"/>
                </mxCell>
                <mxCell id="349" value="Name" style="text;html=1;strokeColor=none;fillColor=none;align=center;verticalAlign=middle;whiteSpace=wrap;rounded=0;fontSize=24;" parent="1" vertex="1">
                    <mxGeometry x="5048" y="2303" width="60" height="30" as="geometry"/>
                </mxCell>
                <mxCell id="350" value="....." style="text;html=1;strokeColor=none;fillColor=none;align=center;verticalAlign=middle;whiteSpace=wrap;rounded=0;fontSize=24;" parent="1" vertex="1">
                    <mxGeometry x="5138" y="2303" width="60" height="30" as="geometry"/>
                </mxCell>
                <mxCell id="351" value="&lt;font style=&quot;font-size: 18px;&quot;&gt;Delete&lt;/font&gt;" style="rounded=1;whiteSpace=wrap;html=1;fontSize=24;" parent="1" vertex="1">
                    <mxGeometry x="5698" y="2300" width="64" height="32" as="geometry"/>
                </mxCell>
                <mxCell id="352" value="&lt;font style=&quot;font-size: 18px;&quot;&gt;Edit&lt;/font&gt;" style="rounded=1;whiteSpace=wrap;html=1;fontSize=24;" parent="1" vertex="1">
                    <mxGeometry x="5618" y="2300" width="64" height="32" as="geometry"/>
                </mxCell>
                <mxCell id="353" value="&lt;font style=&quot;font-size: 18px;&quot;&gt;View&lt;/font&gt;" style="rounded=1;whiteSpace=wrap;html=1;fontSize=24;" parent="1" vertex="1">
                    <mxGeometry x="5538" y="2300" width="64" height="32" as="geometry"/>
                </mxCell>
                <mxCell id="354" value="" style="rounded=0;whiteSpace=wrap;html=1;fontSize=24;" parent="1" vertex="1">
                    <mxGeometry x="4952" y="2368" width="836" height="60" as="geometry"/>
                </mxCell>
                <mxCell id="355" value="id" style="text;html=1;strokeColor=none;fillColor=none;align=center;verticalAlign=middle;whiteSpace=wrap;rounded=0;fontSize=24;" parent="1" vertex="1">
                    <mxGeometry x="4968" y="2383" width="60" height="30" as="geometry"/>
                </mxCell>
                <mxCell id="356" value="Name" style="text;html=1;strokeColor=none;fillColor=none;align=center;verticalAlign=middle;whiteSpace=wrap;rounded=0;fontSize=24;" parent="1" vertex="1">
                    <mxGeometry x="5048" y="2383" width="60" height="30" as="geometry"/>
                </mxCell>
                <mxCell id="357" value="....." style="text;html=1;strokeColor=none;fillColor=none;align=center;verticalAlign=middle;whiteSpace=wrap;rounded=0;fontSize=24;" parent="1" vertex="1">
                    <mxGeometry x="5138" y="2383" width="60" height="30" as="geometry"/>
                </mxCell>
                <mxCell id="358" value="&lt;font style=&quot;font-size: 18px;&quot;&gt;Delete&lt;/font&gt;" style="rounded=1;whiteSpace=wrap;html=1;fontSize=24;" parent="1" vertex="1">
                    <mxGeometry x="5698" y="2380" width="64" height="32" as="geometry"/>
                </mxCell>
                <mxCell id="359" value="&lt;font style=&quot;font-size: 18px;&quot;&gt;Edit&lt;/font&gt;" style="rounded=1;whiteSpace=wrap;html=1;fontSize=24;" parent="1" vertex="1">
                    <mxGeometry x="5618" y="2380" width="64" height="32" as="geometry"/>
                </mxCell>
                <mxCell id="360" value="&lt;font style=&quot;font-size: 18px;&quot;&gt;View&lt;/font&gt;" style="rounded=1;whiteSpace=wrap;html=1;fontSize=24;" parent="1" vertex="1">
                    <mxGeometry x="5538" y="2380" width="64" height="32" as="geometry"/>
                </mxCell>
                <mxCell id="361" value="" style="rounded=0;whiteSpace=wrap;html=1;fontSize=24;" parent="1" vertex="1">
                    <mxGeometry x="4952" y="2448" width="836" height="60" as="geometry"/>
                </mxCell>
                <mxCell id="362" value="id" style="text;html=1;strokeColor=none;fillColor=none;align=center;verticalAlign=middle;whiteSpace=wrap;rounded=0;fontSize=24;" parent="1" vertex="1">
                    <mxGeometry x="4968" y="2463" width="60" height="30" as="geometry"/>
                </mxCell>
                <mxCell id="363" value="Name" style="text;html=1;strokeColor=none;fillColor=none;align=center;verticalAlign=middle;whiteSpace=wrap;rounded=0;fontSize=24;" parent="1" vertex="1">
                    <mxGeometry x="5048" y="2463" width="60" height="30" as="geometry"/>
                </mxCell>
                <mxCell id="364" value="....." style="text;html=1;strokeColor=none;fillColor=none;align=center;verticalAlign=middle;whiteSpace=wrap;rounded=0;fontSize=24;" parent="1" vertex="1">
                    <mxGeometry x="5138" y="2463" width="60" height="30" as="geometry"/>
                </mxCell>
                <mxCell id="365" value="&lt;font style=&quot;font-size: 18px;&quot;&gt;Delete&lt;/font&gt;" style="rounded=1;whiteSpace=wrap;html=1;fontSize=24;" parent="1" vertex="1">
                    <mxGeometry x="5698" y="2460" width="64" height="32" as="geometry"/>
                </mxCell>
                <mxCell id="366" value="&lt;font style=&quot;font-size: 18px;&quot;&gt;Edit&lt;/font&gt;" style="rounded=1;whiteSpace=wrap;html=1;fontSize=24;" parent="1" vertex="1">
                    <mxGeometry x="5618" y="2460" width="64" height="32" as="geometry"/>
                </mxCell>
                <mxCell id="367" value="&lt;font style=&quot;font-size: 18px;&quot;&gt;View&lt;/font&gt;" style="rounded=1;whiteSpace=wrap;html=1;fontSize=24;" parent="1" vertex="1">
                    <mxGeometry x="5538" y="2460" width="64" height="32" as="geometry"/>
                </mxCell>
                <mxCell id="368" value="Add a new user" style="rounded=1;whiteSpace=wrap;html=1;fontSize=18;" parent="1" vertex="1">
                    <mxGeometry x="5608" y="1908" width="182" height="40" as="geometry"/>
                </mxCell>
                <mxCell id="370" value="Select: ban or not ban (ONLY FOR ADMIN)" style="rounded=0;whiteSpace=wrap;html=1;fontSize=18;" parent="1" vertex="1">
                    <mxGeometry x="1450" y="2876" width="710" height="40" as="geometry"/>
                </mxCell>
                <mxCell id="372" value="&lt;font size=&quot;3&quot;&gt;Shown / hidden&lt;br&gt;&lt;/font&gt;" style="rounded=1;whiteSpace=wrap;html=1;fontSize=14;" parent="1" vertex="1">
                    <mxGeometry x="3770" y="490" width="724" height="36" as="geometry"/>
                </mxCell>
                <mxCell id="373" value="&lt;font size=&quot;3&quot;&gt;Shown / hidden&lt;br&gt;&lt;/font&gt;" style="rounded=1;whiteSpace=wrap;html=1;fontSize=14;" parent="1" vertex="1">
                    <mxGeometry x="3778" y="2120" width="724" height="36" as="geometry"/>
                </mxCell>
                <mxCell id="374" value="&lt;font size=&quot;3&quot;&gt;quantity&lt;br&gt;&lt;/font&gt;" style="rounded=1;whiteSpace=wrap;html=1;fontSize=14;" parent="1" vertex="1">
                    <mxGeometry x="3770" y="550" width="724" height="36" as="geometry"/>
                </mxCell>
                <mxCell id="375" value="&lt;font size=&quot;3&quot;&gt;quantity&lt;br&gt;&lt;/font&gt;" style="rounded=1;whiteSpace=wrap;html=1;fontSize=14;" parent="1" vertex="1">
                    <mxGeometry x="3778" y="2240" width="724" height="36" as="geometry"/>
                </mxCell>
                <mxCell id="376" value="" style="rounded=0;whiteSpace=wrap;html=1;" parent="1" vertex="1">
                    <mxGeometry x="5960" y="85" width="1004" height="1510" as="geometry"/>
                </mxCell>
                <mxCell id="377" value="" style="rounded=0;whiteSpace=wrap;html=1;fillColor=#0050ef;fontColor=#ffffff;strokeColor=#001DBC;" parent="1" vertex="1">
                    <mxGeometry x="5960" y="5" width="1004" height="90" as="geometry"/>
                </mxCell>
                <mxCell id="378" value="" style="ellipse;whiteSpace=wrap;html=1;" parent="1" vertex="1">
                    <mxGeometry x="5970" y="10" width="84" height="65" as="geometry"/>
                </mxCell>
                <mxCell id="379" value="Logo" style="rounded=0;whiteSpace=wrap;html=1;" parent="1" vertex="1">
                    <mxGeometry x="6050" y="27.5" width="84" height="30" as="geometry"/>
                </mxCell>
                <mxCell id="380" value="Home | About | Contact" style="rounded=0;whiteSpace=wrap;html=1;" parent="1" vertex="1">
                    <mxGeometry x="6435" y="30" width="184" height="30" as="geometry"/>
                </mxCell>
                <mxCell id="381" value="Hello, username | My account | Logout" style="rounded=0;whiteSpace=wrap;html=1;" parent="1" vertex="1">
                    <mxGeometry x="6640" y="35" width="224" height="30" as="geometry"/>
                </mxCell>
                <mxCell id="382" value="Surch" style="rounded=0;whiteSpace=wrap;html=1;" parent="1" vertex="1">
                    <mxGeometry x="6190" y="30" width="164" height="40" as="geometry"/>
                </mxCell>
                <mxCell id="383" value="Card" style="rounded=0;whiteSpace=wrap;html=1;" parent="1" vertex="1">
                    <mxGeometry x="6870" y="25" width="84" height="50" as="geometry"/>
                </mxCell>
                <mxCell id="384" value="Footer" style="rounded=0;whiteSpace=wrap;html=1;fontSize=48;" parent="1" vertex="1">
                    <mxGeometry x="5960" y="1455" width="1004" height="140" as="geometry"/>
                </mxCell>
                <mxCell id="385" value="&lt;font style=&quot;font-size: 24px;&quot;&gt;Cart&lt;/font&gt;" style="rounded=0;whiteSpace=wrap;html=1;fontSize=14;" parent="1" vertex="1">
                    <mxGeometry x="6318.5" y="126" width="287" height="60" as="geometry"/>
                </mxCell>
                <mxCell id="386" value="" style="whiteSpace=wrap;html=1;aspect=fixed;fontSize=24;" parent="1" vertex="1">
                    <mxGeometry x="6020" y="255" width="900" height="900" as="geometry"/>
                </mxCell>
                <mxCell id="387" value="" style="rounded=0;whiteSpace=wrap;html=1;fontSize=24;" parent="1" vertex="1">
                    <mxGeometry x="6054" y="335" width="836" height="60" as="geometry"/>
                </mxCell>
                <mxCell id="388" value="id" style="text;html=1;strokeColor=none;fillColor=none;align=center;verticalAlign=middle;whiteSpace=wrap;rounded=0;fontSize=24;" parent="1" vertex="1">
                    <mxGeometry x="6170" y="350" width="60" height="30" as="geometry"/>
                </mxCell>
                <mxCell id="389" value="Name" style="text;html=1;strokeColor=none;fillColor=none;align=center;verticalAlign=middle;whiteSpace=wrap;rounded=0;fontSize=24;" parent="1" vertex="1">
                    <mxGeometry x="6250" y="350" width="60" height="30" as="geometry"/>
                </mxCell>
                <mxCell id="390" value="....." style="text;html=1;strokeColor=none;fillColor=none;align=center;verticalAlign=middle;whiteSpace=wrap;rounded=0;fontSize=24;" parent="1" vertex="1">
                    <mxGeometry x="6340" y="350" width="60" height="30" as="geometry"/>
                </mxCell>
                <mxCell id="391" value="&lt;font style=&quot;font-size: 18px;&quot;&gt;Delete&lt;/font&gt;" style="rounded=1;whiteSpace=wrap;html=1;fontSize=24;" parent="1" vertex="1">
                    <mxGeometry x="6800" y="347" width="64" height="32" as="geometry"/>
                </mxCell>
                <mxCell id="393" value="&lt;font style=&quot;font-size: 18px;&quot;&gt;View&lt;/font&gt;" style="rounded=1;whiteSpace=wrap;html=1;fontSize=24;" parent="1" vertex="1">
                    <mxGeometry x="6725" y="347" width="64" height="32" as="geometry"/>
                </mxCell>
                <mxCell id="394" value="" style="rounded=0;whiteSpace=wrap;html=1;fontSize=24;" parent="1" vertex="1">
                    <mxGeometry x="6054" y="415" width="836" height="60" as="geometry"/>
                </mxCell>
                <mxCell id="395" value="id" style="text;html=1;strokeColor=none;fillColor=none;align=center;verticalAlign=middle;whiteSpace=wrap;rounded=0;fontSize=24;" parent="1" vertex="1">
                    <mxGeometry x="6170" y="430" width="60" height="30" as="geometry"/>
                </mxCell>
                <mxCell id="396" value="Name" style="text;html=1;strokeColor=none;fillColor=none;align=center;verticalAlign=middle;whiteSpace=wrap;rounded=0;fontSize=24;" parent="1" vertex="1">
                    <mxGeometry x="6250" y="430" width="60" height="30" as="geometry"/>
                </mxCell>
                <mxCell id="397" value="....." style="text;html=1;strokeColor=none;fillColor=none;align=center;verticalAlign=middle;whiteSpace=wrap;rounded=0;fontSize=24;" parent="1" vertex="1">
                    <mxGeometry x="6340" y="430" width="60" height="30" as="geometry"/>
                </mxCell>
                <mxCell id="398" value="&lt;font style=&quot;font-size: 18px;&quot;&gt;Delete&lt;/font&gt;" style="rounded=1;whiteSpace=wrap;html=1;fontSize=24;" parent="1" vertex="1">
                    <mxGeometry x="6800" y="427" width="64" height="32" as="geometry"/>
                </mxCell>
                <mxCell id="400" value="&lt;font style=&quot;font-size: 18px;&quot;&gt;View&lt;/font&gt;" style="rounded=1;whiteSpace=wrap;html=1;fontSize=24;" parent="1" vertex="1">
                    <mxGeometry x="6725" y="427" width="64" height="32" as="geometry"/>
                </mxCell>
                <mxCell id="401" value="" style="rounded=0;whiteSpace=wrap;html=1;fontSize=24;" parent="1" vertex="1">
                    <mxGeometry x="6054" y="495" width="836" height="60" as="geometry"/>
                </mxCell>
                <mxCell id="402" value="id" style="text;html=1;strokeColor=none;fillColor=none;align=center;verticalAlign=middle;whiteSpace=wrap;rounded=0;fontSize=24;" parent="1" vertex="1">
                    <mxGeometry x="6170" y="510" width="60" height="30" as="geometry"/>
                </mxCell>
                <mxCell id="403" value="Name" style="text;html=1;strokeColor=none;fillColor=none;align=center;verticalAlign=middle;whiteSpace=wrap;rounded=0;fontSize=24;" parent="1" vertex="1">
                    <mxGeometry x="6250" y="510" width="60" height="30" as="geometry"/>
                </mxCell>
                <mxCell id="404" value="....." style="text;html=1;strokeColor=none;fillColor=none;align=center;verticalAlign=middle;whiteSpace=wrap;rounded=0;fontSize=24;" parent="1" vertex="1">
                    <mxGeometry x="6340" y="510" width="60" height="30" as="geometry"/>
                </mxCell>
                <mxCell id="405" value="&lt;font style=&quot;font-size: 18px;&quot;&gt;Delete&lt;/font&gt;" style="rounded=1;whiteSpace=wrap;html=1;fontSize=24;" parent="1" vertex="1">
                    <mxGeometry x="6800" y="507" width="64" height="32" as="geometry"/>
                </mxCell>
                <mxCell id="407" value="&lt;font style=&quot;font-size: 18px;&quot;&gt;View&lt;/font&gt;" style="rounded=1;whiteSpace=wrap;html=1;fontSize=24;" parent="1" vertex="1">
                    <mxGeometry x="6725" y="507" width="64" height="32" as="geometry"/>
                </mxCell>
                <mxCell id="408" value="" style="rounded=0;whiteSpace=wrap;html=1;fontSize=24;" parent="1" vertex="1">
                    <mxGeometry x="6054" y="575" width="836" height="60" as="geometry"/>
                </mxCell>
                <mxCell id="409" value="id" style="text;html=1;strokeColor=none;fillColor=none;align=center;verticalAlign=middle;whiteSpace=wrap;rounded=0;fontSize=24;" parent="1" vertex="1">
                    <mxGeometry x="6170" y="590" width="60" height="30" as="geometry"/>
                </mxCell>
                <mxCell id="410" value="Name" style="text;html=1;strokeColor=none;fillColor=none;align=center;verticalAlign=middle;whiteSpace=wrap;rounded=0;fontSize=24;" parent="1" vertex="1">
                    <mxGeometry x="6250" y="590" width="60" height="30" as="geometry"/>
                </mxCell>
                <mxCell id="411" value="....." style="text;html=1;strokeColor=none;fillColor=none;align=center;verticalAlign=middle;whiteSpace=wrap;rounded=0;fontSize=24;" parent="1" vertex="1">
                    <mxGeometry x="6340" y="590" width="60" height="30" as="geometry"/>
                </mxCell>
                <mxCell id="412" value="&lt;font style=&quot;font-size: 18px;&quot;&gt;Delete&lt;/font&gt;" style="rounded=1;whiteSpace=wrap;html=1;fontSize=24;" parent="1" vertex="1">
                    <mxGeometry x="6800" y="587" width="64" height="32" as="geometry"/>
                </mxCell>
                <mxCell id="414" value="&lt;font style=&quot;font-size: 18px;&quot;&gt;View&lt;/font&gt;" style="rounded=1;whiteSpace=wrap;html=1;fontSize=24;" parent="1" vertex="1">
                    <mxGeometry x="6725" y="587" width="64" height="32" as="geometry"/>
                </mxCell>
                <mxCell id="415" value="" style="rounded=0;whiteSpace=wrap;html=1;fontSize=24;" parent="1" vertex="1">
                    <mxGeometry x="6054" y="655" width="836" height="60" as="geometry"/>
                </mxCell>
                <mxCell id="416" value="id" style="text;html=1;strokeColor=none;fillColor=none;align=center;verticalAlign=middle;whiteSpace=wrap;rounded=0;fontSize=24;" parent="1" vertex="1">
                    <mxGeometry x="6170" y="670" width="60" height="30" as="geometry"/>
                </mxCell>
                <mxCell id="417" value="Name" style="text;html=1;strokeColor=none;fillColor=none;align=center;verticalAlign=middle;whiteSpace=wrap;rounded=0;fontSize=24;" parent="1" vertex="1">
                    <mxGeometry x="6250" y="670" width="60" height="30" as="geometry"/>
                </mxCell>
                <mxCell id="418" value="....." style="text;html=1;strokeColor=none;fillColor=none;align=center;verticalAlign=middle;whiteSpace=wrap;rounded=0;fontSize=24;" parent="1" vertex="1">
                    <mxGeometry x="6340" y="670" width="60" height="30" as="geometry"/>
                </mxCell>
                <mxCell id="419" value="&lt;font style=&quot;font-size: 18px;&quot;&gt;Delete&lt;/font&gt;" style="rounded=1;whiteSpace=wrap;html=1;fontSize=24;" parent="1" vertex="1">
                    <mxGeometry x="6800" y="667" width="64" height="32" as="geometry"/>
                </mxCell>
                <mxCell id="421" value="&lt;font style=&quot;font-size: 18px;&quot;&gt;View&lt;/font&gt;" style="rounded=1;whiteSpace=wrap;html=1;fontSize=24;" parent="1" vertex="1">
                    <mxGeometry x="6725" y="667" width="64" height="32" as="geometry"/>
                </mxCell>
                <mxCell id="422" value="" style="rounded=0;whiteSpace=wrap;html=1;fontSize=24;" parent="1" vertex="1">
                    <mxGeometry x="6054" y="735" width="836" height="60" as="geometry"/>
                </mxCell>
                <mxCell id="423" value="id" style="text;html=1;strokeColor=none;fillColor=none;align=center;verticalAlign=middle;whiteSpace=wrap;rounded=0;fontSize=24;" parent="1" vertex="1">
                    <mxGeometry x="6170" y="750" width="60" height="30" as="geometry"/>
                </mxCell>
                <mxCell id="424" value="Name" style="text;html=1;strokeColor=none;fillColor=none;align=center;verticalAlign=middle;whiteSpace=wrap;rounded=0;fontSize=24;" parent="1" vertex="1">
                    <mxGeometry x="6250" y="750" width="60" height="30" as="geometry"/>
                </mxCell>
                <mxCell id="425" value="....." style="text;html=1;strokeColor=none;fillColor=none;align=center;verticalAlign=middle;whiteSpace=wrap;rounded=0;fontSize=24;" parent="1" vertex="1">
                    <mxGeometry x="6340" y="750" width="60" height="30" as="geometry"/>
                </mxCell>
                <mxCell id="426" value="&lt;font style=&quot;font-size: 18px;&quot;&gt;Delete&lt;/font&gt;" style="rounded=1;whiteSpace=wrap;html=1;fontSize=24;" parent="1" vertex="1">
                    <mxGeometry x="6800" y="747" width="64" height="32" as="geometry"/>
                </mxCell>
                <mxCell id="428" value="&lt;font style=&quot;font-size: 18px;&quot;&gt;View&lt;/font&gt;" style="rounded=1;whiteSpace=wrap;html=1;fontSize=24;" parent="1" vertex="1">
                    <mxGeometry x="6725" y="747" width="64" height="32" as="geometry"/>
                </mxCell>
                <mxCell id="429" value="Continue shopping" style="rounded=1;whiteSpace=wrap;html=1;fontSize=18;" parent="1" vertex="1">
                    <mxGeometry x="6408" y="940" width="232" height="70" as="geometry"/>
                </mxCell>
                <mxCell id="430" value="&lt;span style=&quot;font-size: 48px;&quot;&gt;Cart&lt;/span&gt;" style="rounded=0;whiteSpace=wrap;html=1;fontSize=14;" parent="1" vertex="1">
                    <mxGeometry x="6230" y="-350" width="440" height="190" as="geometry"/>
                </mxCell>
                <mxCell id="431" value="&lt;font style=&quot;font-size: 18px;&quot;&gt;1&lt;/font&gt;" style="rounded=1;whiteSpace=wrap;html=1;fontSize=24;" parent="1" vertex="1">
                    <mxGeometry x="6540" y="348" width="50" height="32" as="geometry"/>
                </mxCell>
                <mxCell id="437" value="+" style="text;html=1;strokeColor=none;fillColor=none;align=center;verticalAlign=middle;whiteSpace=wrap;rounded=0;fontSize=18;" parent="1" vertex="1">
                    <mxGeometry x="6580" y="347" width="60" height="30" as="geometry"/>
                </mxCell>
                <mxCell id="438" value="-" style="text;html=1;strokeColor=none;fillColor=none;align=center;verticalAlign=middle;whiteSpace=wrap;rounded=0;fontSize=18;" parent="1" vertex="1">
                    <mxGeometry x="6490" y="347" width="60" height="30" as="geometry"/>
                </mxCell>
                <mxCell id="439" value="&lt;font style=&quot;font-size: 18px;&quot;&gt;1&lt;/font&gt;" style="rounded=1;whiteSpace=wrap;html=1;fontSize=24;" parent="1" vertex="1">
                    <mxGeometry x="6540" y="431" width="50" height="32" as="geometry"/>
                </mxCell>
                <mxCell id="440" value="+" style="text;html=1;strokeColor=none;fillColor=none;align=center;verticalAlign=middle;whiteSpace=wrap;rounded=0;fontSize=18;" parent="1" vertex="1">
                    <mxGeometry x="6580" y="430" width="60" height="30" as="geometry"/>
                </mxCell>
                <mxCell id="441" value="-" style="text;html=1;strokeColor=none;fillColor=none;align=center;verticalAlign=middle;whiteSpace=wrap;rounded=0;fontSize=18;" parent="1" vertex="1">
                    <mxGeometry x="6490" y="430" width="60" height="30" as="geometry"/>
                </mxCell>
                <mxCell id="442" value="&lt;font style=&quot;font-size: 18px;&quot;&gt;1&lt;/font&gt;" style="rounded=1;whiteSpace=wrap;html=1;fontSize=24;" parent="1" vertex="1">
                    <mxGeometry x="6540" y="509.5" width="50" height="32" as="geometry"/>
                </mxCell>
                <mxCell id="443" value="+" style="text;html=1;strokeColor=none;fillColor=none;align=center;verticalAlign=middle;whiteSpace=wrap;rounded=0;fontSize=18;" parent="1" vertex="1">
                    <mxGeometry x="6580" y="508.5" width="60" height="30" as="geometry"/>
                </mxCell>
                <mxCell id="444" value="-" style="text;html=1;strokeColor=none;fillColor=none;align=center;verticalAlign=middle;whiteSpace=wrap;rounded=0;fontSize=18;" parent="1" vertex="1">
                    <mxGeometry x="6490" y="508.5" width="60" height="30" as="geometry"/>
                </mxCell>
                <mxCell id="451" value="&lt;font style=&quot;font-size: 18px;&quot;&gt;1&lt;/font&gt;" style="rounded=1;whiteSpace=wrap;html=1;fontSize=24;" parent="1" vertex="1">
                    <mxGeometry x="6540" y="587" width="50" height="32" as="geometry"/>
                </mxCell>
                <mxCell id="452" value="+" style="text;html=1;strokeColor=none;fillColor=none;align=center;verticalAlign=middle;whiteSpace=wrap;rounded=0;fontSize=18;" parent="1" vertex="1">
                    <mxGeometry x="6580" y="586" width="60" height="30" as="geometry"/>
                </mxCell>
                <mxCell id="453" value="-" style="text;html=1;strokeColor=none;fillColor=none;align=center;verticalAlign=middle;whiteSpace=wrap;rounded=0;fontSize=18;" parent="1" vertex="1">
                    <mxGeometry x="6490" y="586" width="60" height="30" as="geometry"/>
                </mxCell>
                <mxCell id="454" value="&lt;font style=&quot;font-size: 18px;&quot;&gt;1&lt;/font&gt;" style="rounded=1;whiteSpace=wrap;html=1;fontSize=24;" parent="1" vertex="1">
                    <mxGeometry x="6540" y="671" width="50" height="32" as="geometry"/>
                </mxCell>
                <mxCell id="455" value="+" style="text;html=1;strokeColor=none;fillColor=none;align=center;verticalAlign=middle;whiteSpace=wrap;rounded=0;fontSize=18;" parent="1" vertex="1">
                    <mxGeometry x="6580" y="670" width="60" height="30" as="geometry"/>
                </mxCell>
                <mxCell id="456" value="-" style="text;html=1;strokeColor=none;fillColor=none;align=center;verticalAlign=middle;whiteSpace=wrap;rounded=0;fontSize=18;" parent="1" vertex="1">
                    <mxGeometry x="6490" y="670" width="60" height="30" as="geometry"/>
                </mxCell>
                <mxCell id="457" value="&lt;font style=&quot;font-size: 18px;&quot;&gt;1&lt;/font&gt;" style="rounded=1;whiteSpace=wrap;html=1;fontSize=24;" parent="1" vertex="1">
                    <mxGeometry x="6550" y="749.5" width="50" height="32" as="geometry"/>
                </mxCell>
                <mxCell id="458" value="+" style="text;html=1;strokeColor=none;fillColor=none;align=center;verticalAlign=middle;whiteSpace=wrap;rounded=0;fontSize=18;" parent="1" vertex="1">
                    <mxGeometry x="6590" y="748.5" width="60" height="30" as="geometry"/>
                </mxCell>
                <mxCell id="459" value="-" style="text;html=1;strokeColor=none;fillColor=none;align=center;verticalAlign=middle;whiteSpace=wrap;rounded=0;fontSize=18;" parent="1" vertex="1">
                    <mxGeometry x="6500" y="748.5" width="60" height="30" as="geometry"/>
                </mxCell>
                <mxCell id="460" value="checkout" style="rounded=1;whiteSpace=wrap;html=1;fontSize=18;" parent="1" vertex="1">
                    <mxGeometry x="6060" y="944" width="240" height="60" as="geometry"/>
                </mxCell>
                <mxCell id="461" value="" style="rounded=0;whiteSpace=wrap;html=1;fontSize=18;" parent="1" vertex="1">
                    <mxGeometry x="6070" y="350" width="30" height="30" as="geometry"/>
                </mxCell>
                <mxCell id="462" value="" style="rounded=0;whiteSpace=wrap;html=1;fontSize=18;" parent="1" vertex="1">
                    <mxGeometry x="6070" y="430" width="30" height="30" as="geometry"/>
                </mxCell>
                <mxCell id="463" value="" style="rounded=0;whiteSpace=wrap;html=1;fontSize=18;" parent="1" vertex="1">
                    <mxGeometry x="6070" y="511.5" width="30" height="30" as="geometry"/>
                </mxCell>
                <mxCell id="464" value="" style="rounded=0;whiteSpace=wrap;html=1;fontSize=18;" parent="1" vertex="1">
                    <mxGeometry x="6070" y="590" width="30" height="30" as="geometry"/>
                </mxCell>
                <mxCell id="465" value="" style="rounded=0;whiteSpace=wrap;html=1;fontSize=18;" parent="1" vertex="1">
                    <mxGeometry x="6070" y="672" width="30" height="30" as="geometry"/>
                </mxCell>
                <mxCell id="466" value="" style="rounded=0;whiteSpace=wrap;html=1;fontSize=18;" parent="1" vertex="1">
                    <mxGeometry x="6070" y="751.5" width="30" height="30" as="geometry"/>
                </mxCell>
                <mxCell id="467" value="" style="rounded=0;whiteSpace=wrap;html=1;fontSize=18;" parent="1" vertex="1">
                    <mxGeometry x="6070" y="818" width="30" height="30" as="geometry"/>
                </mxCell>
                <mxCell id="468" value="Select all" style="text;html=1;strokeColor=none;fillColor=none;align=center;verticalAlign=middle;whiteSpace=wrap;rounded=0;fontSize=18;" parent="1" vertex="1">
                    <mxGeometry x="6090" y="818" width="130" height="30" as="geometry"/>
                </mxCell>
                <mxCell id="469" value="" style="rounded=0;whiteSpace=wrap;html=1;" parent="1" vertex="1">
                    <mxGeometry x="108" y="1853" width="1004" height="2027" as="geometry"/>
                </mxCell>
                <mxCell id="470" value="" style="rounded=0;whiteSpace=wrap;html=1;fillColor=#0050ef;fontColor=#ffffff;strokeColor=#001DBC;" parent="1" vertex="1">
                    <mxGeometry x="108" y="1773" width="1004" height="90" as="geometry"/>
                </mxCell>
                <mxCell id="471" value="" style="ellipse;whiteSpace=wrap;html=1;" parent="1" vertex="1">
                    <mxGeometry x="118" y="1778" width="84" height="65" as="geometry"/>
                </mxCell>
                <mxCell id="472" value="Logo" style="rounded=0;whiteSpace=wrap;html=1;" parent="1" vertex="1">
                    <mxGeometry x="198" y="1795.5" width="84" height="30" as="geometry"/>
                </mxCell>
                <mxCell id="473" value="Home | About | Contact" style="rounded=0;whiteSpace=wrap;html=1;" parent="1" vertex="1">
                    <mxGeometry x="583" y="1798" width="184" height="30" as="geometry"/>
                </mxCell>
                <mxCell id="474" value="Hello, username | My account | Logout" style="rounded=0;whiteSpace=wrap;html=1;" parent="1" vertex="1">
                    <mxGeometry x="788" y="1803" width="224" height="30" as="geometry"/>
                </mxCell>
                <mxCell id="475" value="Surch" style="rounded=0;whiteSpace=wrap;html=1;" parent="1" vertex="1">
                    <mxGeometry x="338" y="1798" width="164" height="40" as="geometry"/>
                </mxCell>
                <mxCell id="476" value="Card" style="rounded=0;whiteSpace=wrap;html=1;" parent="1" vertex="1">
                    <mxGeometry x="1018" y="1793" width="84" height="50" as="geometry"/>
                </mxCell>
                <mxCell id="477" value="Footer" style="rounded=0;whiteSpace=wrap;html=1;fontSize=48;" parent="1" vertex="1">
                    <mxGeometry x="106" y="3730" width="1004" height="140" as="geometry"/>
                </mxCell>
                <mxCell id="478" value="&lt;font style=&quot;font-size: 24px;&quot;&gt;Details&lt;/font&gt;" style="rounded=0;whiteSpace=wrap;html=1;fontSize=14;" parent="1" vertex="1">
                    <mxGeometry x="466.5" y="1894" width="287" height="60" as="geometry"/>
                </mxCell>
                <mxCell id="480" value="" style="rounded=0;whiteSpace=wrap;html=1;fontSize=48;" parent="1" vertex="1">
                    <mxGeometry x="210" y="1989" width="810" height="411" as="geometry"/>
                </mxCell>
                <mxCell id="484" style="edgeStyle=none;html=1;exitX=0.5;exitY=1;exitDx=0;exitDy=0;entryX=0.574;entryY=1.121;entryDx=0;entryDy=0;entryPerimeter=0;fontSize=24;" parent="1" edge="1">
                    <mxGeometry relative="1" as="geometry">
                        <mxPoint x="614.5" y="2129" as="sourcePoint"/>
                        <mxPoint x="631.1500000000001" y="2132.63" as="targetPoint"/>
                    </mxGeometry>
                </mxCell>
                <mxCell id="485" value="Img" style="rounded=0;whiteSpace=wrap;html=1;fontSize=24;" parent="1" vertex="1">
                    <mxGeometry x="210" y="2481" width="420" height="289" as="geometry"/>
                </mxCell>
                <mxCell id="487" value="" style="rounded=1;whiteSpace=wrap;html=1;fontSize=24;" parent="1" vertex="1">
                    <mxGeometry x="198" y="3760" width="190" height="44" as="geometry"/>
                </mxCell>
                <mxCell id="490" value="&lt;h1&gt;All info&lt;/h1&gt;&lt;div&gt;&lt;br&gt;&lt;/div&gt;&lt;p&gt;Lorem ipsum dolor sit amet, consectetur adipisicing elit, sed do eiusmod tempor incididunt ut labore et dolore magna aliqua.&lt;/p&gt;" style="text;html=1;strokeColor=none;fillColor=none;spacing=5;spacingTop=-20;whiteSpace=wrap;overflow=hidden;rounded=0;fontSize=18;" parent="1" vertex="1">
                    <mxGeometry x="260" y="2036" width="370" height="294" as="geometry"/>
                </mxCell>
                <mxCell id="493" value="" style="rounded=0;whiteSpace=wrap;html=1;fontSize=48;" parent="1" vertex="1">
                    <mxGeometry x="202" y="2860" width="810" height="650" as="geometry"/>
                </mxCell>
                <mxCell id="494" value="&lt;span style=&quot;color: rgb(55, 58, 60); font-family: -apple-system, &amp;quot;system-ui&amp;quot;, &amp;quot;Segoe UI&amp;quot;, Roboto, &amp;quot;Helvetica Neue&amp;quot;, Arial, sans-serif, &amp;quot;Apple Color Emoji&amp;quot;, &amp;quot;Segoe UI Emoji&amp;quot;, &amp;quot;Segoe UI Symbol&amp;quot;; font-size: 15px; text-align: left; background-color: rgb(255, 255, 255);&quot;&gt;reviews&lt;/span&gt;" style="rounded=0;whiteSpace=wrap;html=1;fontSize=24;" parent="1" vertex="1">
                    <mxGeometry x="220" y="2879" width="770" height="111" as="geometry"/>
                </mxCell>
                <mxCell id="496" value="Photo" style="ellipse;whiteSpace=wrap;html=1;aspect=fixed;fontSize=18;" parent="1" vertex="1">
                    <mxGeometry x="240" y="2895" width="80" height="80" as="geometry"/>
                </mxCell>
                <mxCell id="497" value="Heading" style="text;html=1;strokeColor=none;fillColor=none;align=center;verticalAlign=middle;whiteSpace=wrap;rounded=0;fontSize=18;" parent="1" vertex="1">
                    <mxGeometry x="350" y="2895" width="60" height="30" as="geometry"/>
                </mxCell>
                <mxCell id="498" value="Text" style="text;html=1;strokeColor=none;fillColor=none;align=center;verticalAlign=middle;whiteSpace=wrap;rounded=0;fontSize=18;" parent="1" vertex="1">
                    <mxGeometry x="350" y="2930" width="60" height="30" as="geometry"/>
                </mxCell>
                <mxCell id="500" value="&lt;span style=&quot;color: rgb(55, 58, 60); font-family: -apple-system, &amp;quot;system-ui&amp;quot;, &amp;quot;Segoe UI&amp;quot;, Roboto, &amp;quot;Helvetica Neue&amp;quot;, Arial, sans-serif, &amp;quot;Apple Color Emoji&amp;quot;, &amp;quot;Segoe UI Emoji&amp;quot;, &amp;quot;Segoe UI Symbol&amp;quot;; font-size: 15px; text-align: left; background-color: rgb(255, 255, 255);&quot;&gt;reviews&lt;/span&gt;" style="rounded=0;whiteSpace=wrap;html=1;fontSize=24;" parent="1" vertex="1">
                    <mxGeometry x="220" y="3009" width="770" height="111" as="geometry"/>
                </mxCell>
                <mxCell id="501" value="Photo" style="ellipse;whiteSpace=wrap;html=1;aspect=fixed;fontSize=18;" parent="1" vertex="1">
                    <mxGeometry x="240" y="3025" width="80" height="80" as="geometry"/>
                </mxCell>
                <mxCell id="502" value="Heading" style="text;html=1;strokeColor=none;fillColor=none;align=center;verticalAlign=middle;whiteSpace=wrap;rounded=0;fontSize=18;" parent="1" vertex="1">
                    <mxGeometry x="350" y="3025" width="60" height="30" as="geometry"/>
                </mxCell>
                <mxCell id="503" value="Text" style="text;html=1;strokeColor=none;fillColor=none;align=center;verticalAlign=middle;whiteSpace=wrap;rounded=0;fontSize=18;" parent="1" vertex="1">
                    <mxGeometry x="350" y="3060" width="60" height="30" as="geometry"/>
                </mxCell>
                <mxCell id="504" value="&lt;span style=&quot;color: rgb(55, 58, 60); font-family: -apple-system, &amp;quot;system-ui&amp;quot;, &amp;quot;Segoe UI&amp;quot;, Roboto, &amp;quot;Helvetica Neue&amp;quot;, Arial, sans-serif, &amp;quot;Apple Color Emoji&amp;quot;, &amp;quot;Segoe UI Emoji&amp;quot;, &amp;quot;Segoe UI Symbol&amp;quot;; font-size: 15px; text-align: left; background-color: rgb(255, 255, 255);&quot;&gt;reviews&lt;/span&gt;" style="rounded=0;whiteSpace=wrap;html=1;fontSize=24;" parent="1" vertex="1">
                    <mxGeometry x="222" y="3140" width="770" height="111" as="geometry"/>
                </mxCell>
                <mxCell id="505" value="Photo" style="ellipse;whiteSpace=wrap;html=1;aspect=fixed;fontSize=18;" parent="1" vertex="1">
                    <mxGeometry x="242" y="3156" width="80" height="80" as="geometry"/>
                </mxCell>
                <mxCell id="506" value="Heading" style="text;html=1;strokeColor=none;fillColor=none;align=center;verticalAlign=middle;whiteSpace=wrap;rounded=0;fontSize=18;" parent="1" vertex="1">
                    <mxGeometry x="352" y="3156" width="60" height="30" as="geometry"/>
                </mxCell>
                <mxCell id="507" value="Text" style="text;html=1;strokeColor=none;fillColor=none;align=center;verticalAlign=middle;whiteSpace=wrap;rounded=0;fontSize=18;" parent="1" vertex="1">
                    <mxGeometry x="352" y="3191" width="60" height="30" as="geometry"/>
                </mxCell>
                <mxCell id="508" value="&lt;span style=&quot;color: rgb(55, 58, 60); font-family: -apple-system, &amp;quot;system-ui&amp;quot;, &amp;quot;Segoe UI&amp;quot;, Roboto, &amp;quot;Helvetica Neue&amp;quot;, Arial, sans-serif, &amp;quot;Apple Color Emoji&amp;quot;, &amp;quot;Segoe UI Emoji&amp;quot;, &amp;quot;Segoe UI Symbol&amp;quot;; font-size: 15px; text-align: left; background-color: rgb(255, 255, 255);&quot;&gt;reviews&lt;/span&gt;" style="rounded=0;whiteSpace=wrap;html=1;fontSize=24;" parent="1" vertex="1">
                    <mxGeometry x="222" y="3280" width="770" height="111" as="geometry"/>
                </mxCell>
                <mxCell id="509" value="Photo" style="ellipse;whiteSpace=wrap;html=1;aspect=fixed;fontSize=18;" parent="1" vertex="1">
                    <mxGeometry x="242" y="3296" width="80" height="80" as="geometry"/>
                </mxCell>
                <mxCell id="510" value="Heading" style="text;html=1;strokeColor=none;fillColor=none;align=center;verticalAlign=middle;whiteSpace=wrap;rounded=0;fontSize=18;" parent="1" vertex="1">
                    <mxGeometry x="352" y="3296" width="60" height="30" as="geometry"/>
                </mxCell>
                <mxCell id="511" value="Text" style="text;html=1;strokeColor=none;fillColor=none;align=center;verticalAlign=middle;whiteSpace=wrap;rounded=0;fontSize=18;" parent="1" vertex="1">
                    <mxGeometry x="352" y="3331" width="60" height="30" as="geometry"/>
                </mxCell>
                <mxCell id="512" value="&lt;span style=&quot;color: rgb(55, 58, 60); font-family: -apple-system, &amp;quot;system-ui&amp;quot;, &amp;quot;Segoe UI&amp;quot;, Roboto, &amp;quot;Helvetica Neue&amp;quot;, Arial, sans-serif, &amp;quot;Apple Color Emoji&amp;quot;, &amp;quot;Segoe UI Emoji&amp;quot;, &amp;quot;Segoe UI Symbol&amp;quot;; font-size: 15px; text-align: left; background-color: rgb(255, 255, 255);&quot;&gt;reviews&lt;/span&gt;" style="rounded=0;whiteSpace=wrap;html=1;fontSize=24;" parent="1" vertex="1">
                    <mxGeometry x="220" y="3399" width="770" height="111" as="geometry"/>
                </mxCell>
                <mxCell id="513" value="Photo" style="ellipse;whiteSpace=wrap;html=1;aspect=fixed;fontSize=18;" parent="1" vertex="1">
                    <mxGeometry x="240" y="3415" width="80" height="80" as="geometry"/>
                </mxCell>
                <mxCell id="514" value="Heading" style="text;html=1;strokeColor=none;fillColor=none;align=center;verticalAlign=middle;whiteSpace=wrap;rounded=0;fontSize=18;" parent="1" vertex="1">
                    <mxGeometry x="350" y="3415" width="60" height="30" as="geometry"/>
                </mxCell>
                <mxCell id="515" value="Text" style="text;html=1;strokeColor=none;fillColor=none;align=center;verticalAlign=middle;whiteSpace=wrap;rounded=0;fontSize=18;" parent="1" vertex="1">
                    <mxGeometry x="350" y="3450" width="60" height="30" as="geometry"/>
                </mxCell>
                <mxCell id="516" value="" style="ellipse;whiteSpace=wrap;html=1;fontSize=18;" parent="1" vertex="1">
                    <mxGeometry x="220" y="2428" width="10" height="14" as="geometry"/>
                </mxCell>
                <mxCell id="517" value="" style="ellipse;whiteSpace=wrap;html=1;fontSize=18;" parent="1" vertex="1">
                    <mxGeometry x="235" y="2428" width="10" height="14" as="geometry"/>
                </mxCell>
                <mxCell id="518" value="" style="ellipse;whiteSpace=wrap;html=1;fontSize=18;" parent="1" vertex="1">
                    <mxGeometry x="249" y="2428" width="10" height="14" as="geometry"/>
                </mxCell>
                <mxCell id="519" value="" style="ellipse;whiteSpace=wrap;html=1;fontSize=18;" parent="1" vertex="1">
                    <mxGeometry x="264" y="2428" width="10" height="14" as="geometry"/>
                </mxCell>
                <mxCell id="520" value="" style="ellipse;whiteSpace=wrap;html=1;fontSize=18;" parent="1" vertex="1">
                    <mxGeometry x="277" y="2428" width="10" height="14" as="geometry"/>
                </mxCell>
                <mxCell id="521" value="" style="ellipse;whiteSpace=wrap;html=1;fontSize=18;" parent="1" vertex="1">
                    <mxGeometry x="173" y="714" width="10" height="14" as="geometry"/>
                </mxCell>
                <mxCell id="522" value="" style="ellipse;whiteSpace=wrap;html=1;fontSize=18;" parent="1" vertex="1">
                    <mxGeometry x="188" y="714" width="10" height="14" as="geometry"/>
                </mxCell>
                <mxCell id="523" value="" style="ellipse;whiteSpace=wrap;html=1;fontSize=18;" parent="1" vertex="1">
                    <mxGeometry x="202" y="714" width="10" height="14" as="geometry"/>
                </mxCell>
                <mxCell id="524" value="" style="ellipse;whiteSpace=wrap;html=1;fontSize=18;" parent="1" vertex="1">
                    <mxGeometry x="217" y="714" width="10" height="14" as="geometry"/>
                </mxCell>
                <mxCell id="525" value="" style="ellipse;whiteSpace=wrap;html=1;fontSize=18;" parent="1" vertex="1">
                    <mxGeometry x="230" y="714" width="10" height="14" as="geometry"/>
                </mxCell>
            </root>
        </mxGraphModel>
    </diagram>
</mxfile>